<?xml version="1.0" encoding="UTF-8"?>
<!DOCTYPE svg PUBLIC "-//W3C//DTD SVG 1.1//EN" "http://www.w3.org/Graphics/SVG/1.1/DTD/svg11.dtd">
<!-- Creator: CorelDRAW X5 -->
<svg xmlns="http://www.w3.org/2000/svg" xml:space="preserve" width="83.3374mm" height="6.4008mm" style="shape-rendering:geometricPrecision; text-rendering:geometricPrecision; image-rendering:optimizeQuality; fill-rule:evenodd; clip-rule:evenodd"
viewBox="0 0 8334 640"
 xmlns:xlink="http://www.w3.org/1999/xlink">
 <defs>
  <style type="text/css">
   <![CDATA[
    .fil0 {fill:#9D9E9E;fill-rule:nonzero}
    .fil1 {fill:#DA9926;fill-rule:nonzero}
   ]]>
  </style>
 </defs>
 <g id="Слой_x0020_1">
  <metadata id="CorelCorpID_0Corel-Layer"/>
  <g id="_235055776">
   <polygon class="fil0" points="8334,2 8200,2 8007,497 7816,2 7681,2 7946,641 8070,641 "/>
   <path class="fil0" d="M7161 520l-357 0 0 -143 344 0 0 -112 -344 0 0 -147 357 0 0 -116 -476 0c0,106 0,212 0,318 0,106 0,212 0,318l476 0 0 -118z"/>
   <path class="fil0" d="M5830 2c-26,0 -54,0 -82,0 -29,0 -57,0 -86,0 -28,0 -56,0 -82,0l0 636c26,0 54,0 82,0 29,0 57,0 86,0 28,0 56,0 82,0 45,0 84,-6 119,-18 35,-12 65,-28 90,-49 25,-21 46,-45 62,-73 16,-28 28,-57 36,-88 8,-31 11,-63 11,-95 0,-32 -5,-63 -13,-93 -8,-30 -21,-59 -37,-85 -16,-26 -37,-50 -62,-70 -25,-20 -55,-36 -89,-47 -34,-11 -73,-17 -117,-17zm-131 113l131 0c28,0 52,4 73,11 21,7 40,17 55,30 16,13 28,28 39,44 10,17 18,35 23,54 5,19 8,39 8,59 1,21 -1,41 -6,62 -4,20 -12,39 -21,57 -10,18 -23,33 -38,47 -16,13 -35,24 -57,32 -22,8 -48,12 -76,12l-131 0 0 -408z"/>
  </g>
  <g id="_236338264">
   <path class="fil1" d="M4923 638l131 0 -285 -636 -131 0 -285 636 130 0c76,-166 148,-335 221,-503 73,168 145,336 220,503z"/>
   <polygon class="fil1" points="3844,638 3844,4 3725,4 3725,272 3413,272 3413,4 3293,4 3293,638 3413,638 3413,382 3725,382 3725,638 "/>
   <path class="fil1" d="M2517 2c-50,0 -100,0 -150,0 -50,0 -100,0 -150,0l0 636 120 0 0 -187 180 0c35,0 65,-5 92,-15 27,-10 50,-24 69,-41 19,-17 35,-37 46,-60 12,-22 19,-46 23,-71 4,-25 4,-50 0,-75 -4,-25 -11,-48 -23,-71 -12,-22 -27,-42 -46,-60 -19,-18 -42,-31 -69,-41 -27,-10 -57,-15 -92,-15zm-180 114l180 0c22,0 41,4 56,12 16,8 28,19 37,32 9,13 16,28 19,44 3,16 3,32 0,48 -3,16 -9,31 -19,44 -9,13 -22,24 -38,32 -16,8 -34,12 -56,12l-180 0 0 -225z"/>
   <polygon class="fil1" points="1225,2 1225,638 1672,638 1672,527 1345,527 1345,2 "/>
   <path class="fil1" d="M570 638l131 0 -285 -636 -131 0 -285 636 130 0c76,-166 148,-335 221,-503 73,168 145,336 220,503z"/>
  </g>
 </g>
</svg>
