<svg width="100" height="100" xmlns="http://www.w3.org/2000/svg">
	<g fill="#da9926">
		<path d="M79.84 79.28h10.22v-4.42L100 84.8l-9.94 9.95v-4.42H65.9c5.35-2.74 10.08-6.5 13.94-11.05zM41.2 21.02c-14.22 2-25.17 14.24-25.17 28.98 0 10.12 5.15 19.05 12.97 24.3H13.15C8.03 67.56 4.97 59.13 4.97 50c0-20.64 15.6-37.7 35.64-40.04l-5.24 5.24 5.83 5.82z"/>
		<path d="M5.53 84.8L0 79.3h45.3c16.15 0 29.3-13.13 29.3-29.28 0-14.45-10.54-26.48-24.32-28.85v4l-9.95-9.95 9.95-9.95V10c19.9 2.45 35.36 19.45 35.36 40 0 22.24-18.1 40.33-40.33 40.33H0l5.53-5.52z"/>
	</g>
</svg>
