<svg width="100" height="100" xmlns="http://www.w3.org/2000/svg"><path fill="none" d="M-1-1h102v102H-1z"/><g stroke="null"><path fill="#da9926" d="M44.65 89.4l-4-6.93c-.64-1.1-.9-2.37-.84-3.6-1.84.18-3.8.28-5.9.28-14.97 0-24.14-4.93-24.14-7.6 0-.66.55-1.44 1.57-2.25 6.04 2.85 14.5 4.3 22.57 4.3 3.26 0 6.57-.23 9.76-.7l.33-.3c-.1-.9-.15-1.8-.15-2.7 0-.9.04-1.82.14-2.72l-2.04-1.8c-1.42-1.27-2.17-3.06-2.17-4.87-1.85.18-3.82.28-5.9.28-14.97 0-24.14-4.93-24.14-7.6 0-.66.55-1.44 1.57-2.25 6.04 2.85 14.5 4.32 22.57 4.32 2.74 0 5.52-.18 8.24-.5l2.5-4.36c1.16-2 3.3-3.25 5.6-3.25.7 0 1.4.1 2.05.33l2.57.86c1.47-1.07 3.04-1.98 4.7-2.72l.54-2.65c.52-2.47 2.4-4.37 4.77-4.97v-3.2c0-2.3-.97-4.34-2.64-6.1 1.36-1.4 2.28-2.95 2.64-4.67v-7.6C64.87 7.06 48.9 2 33.9 2 18.9 2 2.94 7.06 2.94 16.43v7.44l.02.16c.36 1.72 1.28 3.27 2.63 4.65-1.7 1.77-2.66 3.82-2.66 6.12v7.44l.02.15c.36 1.72 1.28 3.27 2.63 4.65-1.7 1.77-2.66 3.8-2.66 6.12v7.44l.02.16c.36 1.73 1.28 3.28 2.63 4.66-1.7 1.77-2.66 3.8-2.66 6.12v7.43l.02.16c1.75 8.44 16.9 12.85 30.94 12.85 4.02 0 8.12-.36 11.97-1.07-.47-.42-.9-.93-1.22-1.5zM33.9 8.82c14.98 0 24.15 4.93 24.15 7.6 0 2.7-9.17 7.62-24.15 7.62-14.97 0-24.14-4.92-24.14-7.6 0-2.7 9.17-7.62 24.14-7.62zM11.33 32.56c6.04 2.85 14.5 4.32 22.57 4.32 8.1 0 16.53-1.47 22.6-4.3 1 .8 1.55 1.57 1.55 2.22 0 2.68-9.17 7.6-24.15 7.6-14.97 0-24.14-4.92-24.14-7.6 0-.65.54-1.43 1.57-2.24z"/><path fill="#da9926" d="M97.08 77.88l-3.9-3.48c.3-1.45.45-2.96.45-4.5 0-1.55-.16-3.06-.46-4.52l3.9-3.48c.65-.57.8-1.52.38-2.27l-4-6.92c-.43-.74-1.33-1.08-2.15-.8l-4.98 1.65c-2.24-2-4.9-3.56-7.8-4.52l-1.06-5.13c-.17-.84-.92-1.45-1.78-1.45h-8c-.86 0-1.6.6-1.78 1.45l-1.05 5.13c-2.92.96-5.57 2.5-7.8 4.52l-5-1.66c-.8-.28-1.7.06-2.14.8l-4 6.94c-.42.74-.26 1.7.38 2.26l3.92 3.48c-.3 1.46-.47 2.97-.47 4.5 0 1.56.16 3.07.47 4.53l-3.92 3.48c-.64.58-.8 1.52-.36 2.27l4 6.93c.43.75 1.33 1.1 2.14.8l5-1.64c2.22 2 4.87 3.56 7.8 4.5l1.04 5.14c.18.85.92 1.45 1.78 1.45h8c.87 0 1.6-.6 1.78-1.45l1.06-5.13c2.9-.96 5.56-2.5 7.8-4.5l4.98 1.64c.82.26 1.72-.08 2.15-.82l4-6.93c.43-.75.28-1.7-.37-2.27zm-25.4 1.77c-5.38 0-9.76-4.38-9.76-9.76 0-5.4 4.38-9.76 9.76-9.76s9.76 4.37 9.76 9.75c0 5.37-4.38 9.75-9.76 9.75z"/></g></svg>