<svg width="100" height="100" xmlns="http://www.w3.org/2000/svg">
	<path fill="#da9926" d="M87.94 9.97H12.06c-4.32 0-7.8 3.5-7.8 7.8v46.85c0 4.3 3.48 7.8 7.8 7.8H42.5v7.07h-6.16c-2.9 0-5.27 2.35-5.27 5.26 0 2.9 2.36 5.27 5.27 5.27h27.32c2.9 0 5.27-2.36 5.27-5.27 0-2.9-2.36-5.27-5.27-5.27H57.5v-7.07h30.44c4.32 0 7.8-3.5 7.8-7.8V17.76c0-4.3-3.48-7.8-7.8-7.8zm-1.25 53.4H13.3V19.02h73.4v44.35z"/>
	<path fill="#da9926" d="M41.75 50c-.46 0-.9-.15-1.3-.46L32.7 43.1c-.46-.4-.72-.95-.72-1.55 0-.6.26-1.17.72-1.55l7.76-6.44c.86-.7 2.13-.6 2.84.26.7.86.6 2.13-.27 2.84l-5.9 4.9 5.9 4.88c.86.7.98 1.98.27 2.83-.4.48-.98.73-1.55.73zM58.25 50c-.57 0-1.15-.25-1.55-.73-.7-.85-.6-2.12.27-2.83l5.9-4.9-5.9-4.88c-.86-.7-.98-1.98-.27-2.84.7-.85 1.98-.97 2.84-.26L67.3 40c.46.38.72.95.72 1.55 0 .6-.26 1.16-.72 1.55l-7.76 6.44c-.38.3-.83.46-1.3.46zM46.3 56.33c-.18 0-.37-.02-.56-.08-1.07-.3-1.68-1.42-1.37-2.5l7.4-25.53c.3-1.07 1.42-1.7 2.5-1.38 1.05.3 1.67 1.43 1.36 2.5l-7.4 25.54c-.25.88-1.05 1.45-1.93 1.45z"/>
</svg>
