<?xml version="1.0" encoding="UTF-8"?>
<svg width="104px" height="95px" viewBox="0 0 104 95" version="1.1" xmlns="http://www.w3.org/2000/svg" xmlns:xlink="http://www.w3.org/1999/xlink">
    <!-- Generator: Sketch 40.2 (33826) - http://www.bohemiancoding.com/sketch -->
    <title>Group</title>
    <desc>Created with Sketch.</desc>
    <defs></defs>
    <g id="Page-1" stroke="none" stroke-width="1" fill="none" fill-rule="evenodd">
        <g id="Artboard" transform="translate(-239.000000, -114.000000)">
            <g id="Group" transform="translate(239.000000, 114.000000)">
                <path d="M5,26.0989011 L35,26.0989011 L35,91.9951016 C35,93.6546612 33.6607078,95 33.3002303,95 L35,95 C34.0612431,95 31.9542901,95 30.2984026,95 L8.00182775,95 C6.34396406,95 5,93.6545687 5,91.9951016 L5,26.0989011 Z M15,26.0989011 L25.0981562,26.0989011 L21.6538691,31.5511923 C21.6538691,31.5511923 21.372513,32.1890552 20.7565148,32.5166832 C20.4648667,32.6718007 19.9487883,32.6693396 19.6494967,32.5166832 C19.0023383,32.1865941 18.6083321,31.5511923 18.6083321,31.5511923 L15,26.0989011 Z M25.0981562,94.9994743 L15,94.9994743 L18.4442871,89.5471831 C18.4442871,89.5471831 18.7256432,88.9093201 19.3416414,88.5816922 C19.6332895,88.4265747 20.1493678,88.4290358 20.4486594,88.5816922 C21.0958179,88.9117812 21.489824,89.5471831 21.489824,89.5471831 L25.0981562,94.9994743 Z" id="Combined-Shape" fill="#DA9926"></path>
                <ellipse id="Oval-6" fill="#DA9926" cx="20" cy="11.4835165" rx="11" ry="11.4835165"></ellipse>
                <path d="M4.38253906,56.3757536 C7.14396281,56.3757536 8.32764077,49.5985255 8.32764077,41.238391 C8.32764077,34.6438303 8.45276448,28.6692019 6.50908806,26.5939299 C5.98870401,26.0383135 4.96572315,26.1010283 4.38253906,26.1010283 C3.56054511,26.1010283 2.53277605,26.1820096 1.84869249,27.2460331 C0.234651344,29.7565127 0,35.3668205 0,41.238391 C0,46.9366686 0.494667939,52.7122865 1.84869249,55.2949647 C2.48120284,56.5014204 3.50330502,56.3757536 4.38253906,56.3757536 Z" id="Oval-7" fill="#DA9926"></path>
                <path d="M34,26.0989011 C34,26.0989011 47.117222,26.0989011 53.6347547,26.0989011 C56.7997357,26.0989011 56.3236935,30.8146567 56.1372289,33.0940682 C55.9397135,35.5085679 53.6347547,35.4945055 53.6347547,35.4945055 L34,35.4945055 L34,26.0989011 Z" id="Rectangle-2" fill="#DA9926"></path>
                <path d="M41,7.99856209 C41,7.04159298 41.7712654,6.26581623 42.7112182,6.26581623 L100.288782,6.26581623 C101.233862,6.26581623 102,7.04678438 102,7.99856209 L102,66.3004696 C102,67.2574388 101.228735,68.0332155 100.288782,68.0332155 L42.7112182,68.0332155 C41.7661385,68.0332155 40.6833604,67.1650353 40.6833604,66.2132576" id="Rectangle-3" stroke="#DA9926" stroke-width="3"></path>
                <path d="M78.8839492,7.30769231 C78.4226073,3.18791649 75.2666162,0 71.4419746,0 C67.6173331,0 64.461342,3.18791649 64,7.30769231 L78.8839492,7.30769231 Z" id="Combined-Shape" fill="#DA9926"></path>
                <polyline id="Triangle-2" stroke="#DA9926" stroke-width="2" points="63 83.5164835 72 74.1208791 72 74.1208791 81 83.5164835"></polyline>
            </g>
        </g>
    </g>
</svg>