<svg width="104" height="95" viewBox="0 0 104 95" xmlns="http://www.w3.org/2000/svg">
	<g fill="none" fill-rule="evenodd">
		<path d="M5 26.1h30V92c0 1.65-1.34 3-1.7 3H35 8c-1.66 0-3-1.35-3-3V26.1zm10 0h10.1l-3.45 5.45s-.28.64-.9.97c-.3.15-.8.15-1.1 0-.65-.33-1.04-.97-1.04-.97L15 26.1zM25.1 95H15l3.44-5.45s.3-.64.9-.97c.3-.15.8-.15 1.1 0 .66.33 1.05.97 1.05.97L25.1 95z" fill="#DA9926"/><ellipse fill="#DA9926" cx="20" cy="11.48" rx="11" ry="11.48"/>
		<path d="M4.38 56.38c2.76 0 3.95-6.78 3.95-15.14 0-6.6.12-12.57-1.82-14.65-.5-.56-1.53-.5-2.12-.5-.82 0-1.85.08-2.53 1.15C.23 29.75 0 35.37 0 41.25c0 5.7.5 11.46 1.85 14.04.63 1.2 1.65 1.08 2.53 1.08zM34 26.1h19.63c3.17 0 2.7 4.7 2.5 7-.2 2.4-2.5 2.4-2.5 2.4H34v-9.4z" fill="#DA9926"/>
		<path d="M41 8c0-.96.77-1.73 1.7-1.73h57.6c.93 0 1.7.78 1.7 1.73v58.3c0 .96-.77 1.73-1.7 1.73H42.7c-.93 0-2.02-.86-2.02-1.82" stroke="#DA9926" stroke-width="3"/>
		<path d="M78.88 7.3c-.46-4.1-3.6-7.3-7.44-7.3-3.82 0-6.98 3.2-7.44 7.3h14.88z" fill="#DA9926"/>
		<path stroke="#DA9926" stroke-width="2" d="M63 83.52l9-9.4 9 9.4"/>
	</g>
</svg>
