<svg width="100" height="100" xmlns="http://www.w3.org/2000/svg">
	<g>
	<path fill="#da9926" stroke="null" d="M96.93 65.57c0-.86-.36-1.62-1-2.28.52-.53.87-1.1 1-1.75V58.7c0-3.5-5.96-5.38-11.56-5.38-5.6 0-11.57 1.9-11.57 5.4v2.82c.14.64.5 1.22 1 1.74-.36.36-.63.77-.8 1.2l-7.88-5.3c.7-.77 1.2-1.6 1.38-2.53v-4.3c0-1.3-.55-2.45-1.5-3.45.78-.78 1.3-1.66 1.5-2.64v-.07l12.1-5.35c.5.04.97.06 1.46.06 4.1 0 8.52-1.28 9.03-3.74v-2.22c0-.67-.3-1.26-.78-1.78.4-.4.67-.86.77-1.36v-2.22c0-.67-.3-1.26-.78-1.78.4-.4.67-.86.77-1.36v-2.2c0-.7-.3-1.28-.78-1.8.4-.4.67-.85.77-1.36v-2.2c0-2.75-4.67-4.22-9.04-4.22-4.38 0-9.04 1.47-9.04 4.2v2.22c.1.5.38.96.77 1.36-.5.52-.78 1.1-.78 1.8v2.19c.1.5.38.95.77 1.36-.5.52-.78 1.1-.78 1.78V31.8c.1.5.38.95.77 1.36-.5.5-.78 1.1-.78 1.78v2.23c.2.9.92 1.65 1.96 2.24l-6.48 2.87V42c0-1.3-.54-2.46-1.5-3.46.78-.78 1.3-1.66 1.5-2.64v-4.3c0-1.3-.54-2.44-1.5-3.44.78-.78 1.3-1.66 1.5-2.64v-4.3c0-5.3-9-8.15-17.5-8.15-8.48 0-17.5 2.86-17.5 8.16v4.3c.22.96.74 1.84 1.5 2.62-.95 1-1.5 2.16-1.5 3.46v4.3c.22.98.74 1.85 1.5 2.63-.95 1-1.5 2.16-1.5 3.46v.27l-6.47-2.87c1.04-.58 1.76-1.33 1.95-2.24v-2.22c0-.67-.28-1.26-.77-1.78.4-.4.68-.86.78-1.36v-2.22c0-.67-.28-1.26-.77-1.78.4-.4.68-.86.78-1.36v-2.2c0-.7-.28-1.28-.77-1.8.4-.4.68-.85.78-1.36v-2.2c0-2.75-4.65-4.22-9.03-4.22-4.38 0-9.04 1.47-9.04 4.2l.02 2.18v.04c.1.5.37.96.77 1.36-.5.52-.8 1.1-.8 1.8l.02 2.16v.04c.1.5.37.96.77 1.36-.5.52-.8 1.1-.8 1.78l.02 2.17v.05c.1.5.37.96.77 1.36-.5.52-.8 1.1-.8 1.78l.02 2.17v.06c.5 2.46 4.93 3.75 9.03 3.75.48 0 .96 0 1.45-.05l12.1 5.37v.07c.22.96.74 1.84 1.5 2.62-.95 1-1.5 2.15-1.5 3.46v4.3c.2.9.7 1.75 1.4 2.5L26 64.52c-.17-.43-.43-.83-.8-1.2.52-.53.87-1.1 1-1.75V58.7c0-3.5-5.96-5.38-11.56-5.38-5.6 0-11.57 1.9-11.57 5.4v2.82c.14.64.5 1.22 1 1.74-.64.65-1 1.4-1 2.27v2.84c.14.65.48 1.23 1 1.75-.64.66-1 1.42-1 2.28V75.28c.14.64.48 1.22 1 1.74-.64.67-1 1.43-1 2.3v2.83c.66 3.15 6.3 4.8 11.56 4.8 5.25 0 10.92-1.65 11.57-4.8V79.3c0-.87-.36-1.63-1-2.3.52-.5.86-1.1 1-1.73v-2.84c0-.86-.36-1.62-1-2.28.4-.4.7-.86.9-1.35l10.95-7.4c3.43 1.67 8.3 2.53 12.95 2.53 4.65 0 9.52-.86 12.95-2.52l10.98 7.4c.17.5.46.94.86 1.35-.64.66-1 1.42-1 2.28V75.28c.14.64.5 1.22 1 1.74-.64.67-1 1.43-1 2.3v2.83c.66 3.15 6.32 4.8 11.57 4.8s10.9-1.65 11.56-4.8V79.3c0-.87-.36-1.63-1-2.3.52-.5.87-1.1 1-1.73v-2.84c0-.86-.36-1.62-1-2.28.52-.52.87-1.1 1-1.74v-2.83zM81.06 16.65c4.36 0 7.04 1.43 7.04 2.22 0 .78-2.68 2.22-7.04 2.22-4.37 0-7.05-1.45-7.05-2.23 0-.8 2.7-2.22 7.06-2.22zm-6.6 6.92c1.77.83 4.24 1.26 6.6 1.26 2.35 0 4.82-.43 6.58-1.26.3.24.46.47.46.65 0 .8-2.68 2.22-7.04 2.22C76.7 26.44 74 25 74 24.22c0-.18.17-.4.47-.65zm0 5.36c1.77.83 4.24 1.26 6.6 1.26 2.35 0 4.82-.44 6.58-1.27.3.24.46.46.46.65 0 .8-2.68 2.22-7.04 2.22-4.37 0-7.05-1.43-7.05-2.22 0-.2.17-.4.47-.65zm0 5.36c1.77.82 4.24 1.25 6.6 1.25 2.35 0 4.82-.43 6.58-1.26.3.23.46.45.46.64 0 .8-2.68 2.22-7.04 2.22-4.37 0-7.05-1.43-7.05-2.22 0-.2.17-.4.47-.65zM18.95 16.64c4.37 0 7.05 1.43 7.05 2.22 0 .78-2.7 2.22-7.06 2.22-4.36 0-7.04-1.45-7.04-2.23 0-.8 2.68-2.22 7.04-2.22zm-6.58 6.92c1.76.83 4.23 1.26 6.58 1.26 2.36 0 4.83-.43 6.6-1.26.3.24.45.47.45.65 0 .8-2.7 2.22-7.06 2.22-4.36 0-7.04-1.43-7.04-2.22 0-.18.16-.4.46-.65zm0 5.36c1.76.83 4.23 1.26 6.58 1.26 2.36 0 4.83-.44 6.6-1.27.3.24.45.46.45.65 0 .8-2.7 2.22-7.06 2.22-4.36 0-7.04-1.43-7.04-2.22 0-.2.16-.4.46-.65zm-.46 6c0-.18.16-.4.46-.64 1.76.82 4.23 1.25 6.58 1.25 2.36 0 4.83-.43 6.6-1.26.3.23.45.45.45.64 0 .8-2.7 2.22-7.06 2.22-4.36 0-7.04-1.43-7.04-2.22zm38.1-18c8.46 0 13.64 2.78 13.64 4.3s-5.18 4.3-13.64 4.3-13.65-2.78-13.65-4.3 5.2-4.3 13.65-4.3zM37.24 30.35c3.42 1.6 8.2 2.43 12.76 2.43 4.57 0 9.34-.82 12.76-2.43.58.46.88.9.88 1.26 0 1.53-5.18 4.3-13.64 4.3s-13.64-2.77-13.64-4.3c0-.36.3-.8.88-1.25zm0 10.38c3.42 1.6 8.2 2.44 12.76 2.44 4.57 0 9.34-.83 12.76-2.44.58.46.88.9.88 1.26 0 1.5-5.18 4.3-13.64 4.3S36.36 43.5 36.36 42c0-.37.3-.8.88-1.27zm-22.6 15.14c5.6 0 9 1.84 9 2.84 0 1-3.4 2.85-9 2.85S5.6 59.7 5.6 58.7c0-1 3.42-2.83 9-2.83zM6.2 64.74c2.26 1.06 5.4 1.6 8.43 1.6 3.02 0 6.18-.54 8.44-1.6.38.3.58.6.58.83 0 1-3.42 2.84-9.02 2.84s-9-1.83-9-2.83c0-.24.2-.53.57-.83zm8.43 17.4c-5.6 0-9-1.85-9-2.85 0-.25.2-.54.57-.84 2.26 1.06 5.4 1.6 8.43 1.6 3.02 0 6.18-.54 8.44-1.6.38.3.58.6.58.83 0 1-3.42 2.83-9.02 2.83zm0-6.87c-5.6 0-9-1.84-9-2.84 0-.24.2-.53.57-.83 2.26 1.06 5.4 1.6 8.43 1.6 3.02 0 6.18-.54 8.44-1.6.38.3.58.6.58.83 0 1-3.42 2.84-9.02 2.84zm21.72-22.9c0-.36.3-.8.9-1.26 3.4 1.62 8.18 2.45 12.75 2.45s9.34-.83 12.76-2.44c.58.47.88.9.88 1.27 0 1.52-5.18 4.3-13.64 4.3s-13.65-2.78-13.65-4.3zm49.02 29.76c-5.6 0-9.02-1.84-9.02-2.84 0-.25.2-.54.6-.84 2.24 1.06 5.4 1.6 8.42 1.6 3.02 0 6.17-.54 8.43-1.6.38.3.58.6.58.83 0 1-3.42 2.83-9 2.83zm0-6.86c-5.6 0-9.02-1.84-9.02-2.84 0-.24.2-.53.6-.83 2.24 1.06 5.4 1.6 8.42 1.6 3.02 0 6.17-.54 8.43-1.6.38.3.58.6.58.83 0 1-3.42 2.84-9 2.84zm0-6.86c-5.6 0-9.02-1.83-9.02-2.83 0-.24.2-.53.6-.83 2.24 1.06 5.4 1.6 8.42 1.6 3.02 0 6.17-.54 8.43-1.6.38.3.58.6.58.83 0 1-3.42 2.84-9 2.84zm0-6.85c-5.6 0-9.02-1.84-9.02-2.84 0-1 3.42-2.83 9.02-2.83s9 1.84 9 2.84c0 1-3.4 2.85-9 2.85z"/>
</g>
</svg>
