<svg width="100" height="100" xmlns="http://www.w3.org/2000/svg"><path fill="none" d="M-1-1h102v102H-1z"/><path fill="#da9926" stroke="null" d="M96 54.47c0-.84-.35-1.57-.96-2.22.5-.5.83-1.06.96-1.7v-2.74c0-3.38-5.78-5.2-11.2-5.2-5.45 0-11.22 1.82-11.22 5.2V50.57c.13.63.47 1.2.96 1.7-.35.35-.6.75-.77 1.17l-7.64-5.15c.68-.73 1.15-1.55 1.34-2.45v-4.16c0-1.26-.53-2.38-1.45-3.34.74-.76 1.25-1.62 1.45-2.56v-.07l11.73-5.2c.47.03.94.05 1.4.05 3.98 0 8.27-1.25 8.77-3.63v-2.15c0-.65-.28-1.23-.75-1.73.38-.4.65-.83.75-1.32v-2.14c0-.66-.28-1.23-.75-1.73.38-.4.65-.83.75-1.32v-2.15c0-.65-.28-1.23-.75-1.73.38-.4.65-.83.75-1.32V9.18c0-2.65-4.52-4.08-8.76-4.08s-8.75 1.43-8.75 4.08v2.15c.1.5.37.93.75 1.32-.48.5-.75 1.08-.75 1.73v2.15c.1.48.37.92.75 1.3-.48.52-.75 1.1-.75 1.75v2.14c.1.5.37.93.75 1.32-.48.5-.75 1.08-.75 1.73v2.15c.2.88.9 1.6 1.9 2.17l-6.28 2.77v-.26c0-1.25-.53-2.37-1.45-3.34.75-.76 1.25-1.6 1.45-2.56v-4.16c0-1.26-.53-2.38-1.45-3.34.75-.76 1.25-1.62 1.45-2.56v-4.16c0-5.14-8.74-7.9-16.97-7.9-8.22 0-16.97 2.76-16.97 7.9v4.07l.02.1c.2.93.7 1.78 1.44 2.54-.94.96-1.47 2.08-1.47 3.34v4.08l.02.08c.2.95.7 1.8 1.44 2.55-.93.97-1.47 2.1-1.47 3.36v.27l-6.27-2.78c1-.57 1.7-1.3 1.9-2.18v-2.15c0-.65-.28-1.23-.75-1.73.4-.4.65-.83.75-1.32v-2.14c0-.65-.27-1.23-.74-1.73.4-.4.65-.83.75-1.32v-2.15c0-.65-.27-1.23-.74-1.73.4-.4.65-.83.75-1.32V9.18c0-2.65-4.5-4.08-8.76-4.08-4.25 0-8.76 1.43-8.76 4.1v2.13c.1.5.36.93.74 1.32-.47.5-.74 1.08-.74 1.73v2.15c.1.5.36.92.74 1.3-.47.52-.74 1.1-.74 1.75v2.14c.1.5.36.93.74 1.32-.47.5-.74 1.08-.74 1.73v2.15c.5 2.4 4.78 3.63 8.75 3.63.46 0 .93 0 1.4-.05l11.74 5.2v.07c.2.94.7 1.8 1.45 2.55-.93.97-1.47 2.1-1.47 3.35v4.08l.02.08c.18.9.65 1.7 1.33 2.44l-7.65 5.16c-.16-.42-.42-.8-.76-1.17.5-.5.83-1.07.96-1.7v-2.74c0-3.4-5.78-5.23-11.22-5.23C10.8 42.6 5 44.4 5 47.8v2.75c.14.62.47 1.18.96 1.68-.6.64-.96 1.38-.96 2.22v2.75c.14.62.47 1.18.96 1.68-.6.64-.96 1.38-.96 2.22v2.75c.14.62.47 1.18.96 1.68-.6.64-.96 1.38-.96 2.22v2.75c.64 3.05 6.12 4.65 11.2 4.65 5.1 0 10.6-1.6 11.22-4.65v-2.75c0-.84-.35-1.57-.95-2.2.5-.52.82-1.08.95-1.7v-2.75c0-.84-.35-1.57-.95-2.2.4-.4.68-.85.84-1.32l10.65-7.18c3.32 1.62 8.04 2.45 12.55 2.45 4.5 0 9.23-.83 12.56-2.44L73.7 57.6c.16.47.45.9.84 1.3-.6.64-.96 1.38-.96 2.22v2.75c.13.62.47 1.18.96 1.68-.6.64-.96 1.38-.96 2.22v2.75c.64 3.05 6.12 4.65 11.2 4.65 5.1 0 10.6-1.6 11.22-4.65v-2.75c0-.83-.35-1.57-.96-2.2.5-.5.83-1.08.96-1.7v-2.75c0-.84-.35-1.57-.96-2.2.5-.52.83-1.08.96-1.7v-2.75zM80.6 7.03c4.24 0 6.84 1.4 6.84 2.15 0 .76-2.6 2.16-6.83 2.16s-6.82-1.4-6.82-2.16c0-.75 2.6-2.15 6.83-2.15zm-6.38 6.72c1.7.8 4.1 1.22 6.4 1.22 2.27 0 4.66-.42 6.38-1.22.28.23.44.45.44.63 0 .76-2.6 2.15-6.83 2.15s-6.82-1.4-6.82-2.15c0-.18.15-.4.44-.63zm0 5.2c1.7.8 4.1 1.2 6.4 1.2 2.27 0 4.66-.4 6.38-1.2.28.22.44.44.44.62 0 .76-2.6 2.16-6.83 2.16s-6.82-1.4-6.82-2.16c0-.18.15-.4.44-.63zm0 5.2c1.7.8 4.1 1.2 6.4 1.2 2.27 0 4.66-.4 6.38-1.2.28.22.44.44.44.62 0 .76-2.6 2.15-6.83 2.15s-6.82-1.4-6.82-2.15c0-.18.15-.4.44-.63zM20.4 7.02c4.23 0 6.82 1.4 6.82 2.15 0 .76-2.6 2.16-6.83 2.16-4.24 0-6.84-1.4-6.84-2.16 0-.75 2.6-2.15 6.83-2.15zM14 13.75c1.72.8 4.1 1.22 6.4 1.22 2.28 0 4.67-.42 6.38-1.22.3.23.44.45.44.63 0 .76-2.6 2.15-6.83 2.15-4.24 0-6.84-1.4-6.84-2.15 0-.18.16-.4.45-.63zm0 5.2c1.72.8 4.1 1.2 6.4 1.2 2.28 0 4.67-.4 6.38-1.2.3.22.44.44.44.62 0 .76-2.6 2.16-6.83 2.16-4.24 0-6.84-1.4-6.84-2.16 0-.18.16-.4.45-.63zm-.44 5.82c0-.18.16-.4.45-.63 1.72.8 4.1 1.22 6.4 1.22 2.28 0 4.67-.42 6.38-1.22.3.23.44.45.44.63 0 .76-2.6 2.15-6.83 2.15-4.24 0-6.84-1.4-6.84-2.15zM50.5 7.3c8.2 0 13.23 2.7 13.23 4.17 0 1.48-5.02 4.17-13.23 4.17-8.2 0-13.23-2.7-13.23-4.17C37.27 10 42.3 7.3 50.5 7.3zm-12.37 13c3.3 1.58 7.94 2.38 12.37 2.38 4.43 0 9.06-.8 12.37-2.36.56.44.86.87.86 1.22 0 1.47-5.02 4.17-13.23 4.17-8.2 0-13.23-2.7-13.23-4.16 0-.36.3-.78.86-1.23zm0 10.08c3.3 1.56 7.94 2.36 12.37 2.36 4.43 0 9.06-.8 12.37-2.36.56.45.86.87.86 1.23 0 1.48-5.02 4.18-13.23 4.18-8.2 0-13.23-2.7-13.23-4.17 0-.35.3-.78.86-1.22zM16.2 45.06c5.43 0 8.75 1.78 8.75 2.75 0 1-3.32 2.77-8.74 2.77-5.4 0-8.73-1.78-8.73-2.76 0-.96 3.32-2.74 8.74-2.74zm-8.16 8.6c2.2 1.03 5.24 1.56 8.17 1.56 2.94 0 6-.53 8.2-1.56.36.3.55.57.55.8 0 .98-3.32 2.76-8.74 2.76-5.4 0-8.73-1.78-8.73-2.75 0-.24.2-.52.57-.8zm8.17 16.86c-5.4 0-8.73-1.78-8.73-2.75 0-.24.2-.52.57-.8 2.2 1.02 5.24 1.55 8.17 1.55 2.94 0 6-.53 8.2-1.56.36.3.55.57.55.8 0 .98-3.32 2.76-8.74 2.76zm0-6.65c-5.4 0-8.73-1.78-8.73-2.75 0-.24.2-.52.57-.8 2.2 1.02 5.24 1.55 8.17 1.55 2.94 0 6-.53 8.2-1.56.36.3.55.58.55.82 0 .97-3.32 2.75-8.74 2.75zm21.07-22.2c0-.35.3-.78.86-1.22 3.3 1.56 7.94 2.36 12.37 2.36 4.43 0 9.06-.8 12.37-2.35.56.44.86.87.86 1.22 0 1.47-5.02 4.17-13.23 4.17-8.2 0-13.23-2.7-13.23-4.17zM84.8 70.52c-5.43 0-8.75-1.78-8.75-2.75 0-.24.2-.52.56-.8 2.2 1.02 5.26 1.55 8.2 1.55 2.9 0 5.97-.53 8.16-1.56.37.3.57.57.57.8 0 .98-3.32 2.76-8.74 2.76zm0-6.65c-5.43 0-8.75-1.78-8.75-2.75 0-.24.2-.52.56-.8 2.2 1.02 5.26 1.55 8.2 1.55 2.9 0 5.97-.53 8.16-1.56.37.3.57.58.57.82 0 .97-3.32 2.75-8.74 2.75zm0-6.65c-5.43 0-8.75-1.78-8.75-2.75 0-.24.2-.52.56-.8 2.2 1.02 5.26 1.55 8.2 1.55 2.9 0 5.97-.53 8.16-1.56.37.3.57.57.57.8 0 .98-3.32 2.76-8.74 2.76zm0-6.65c-5.43 0-8.75-1.78-8.75-2.76 0-.96 3.32-2.74 8.74-2.74 5.4 0 8.73 1.78 8.73 2.75 0 1-3.32 2.77-8.74 2.77z"/></svg>