<?xml version="1.0" encoding="UTF-8"?>
<svg width="95px" height="95px" viewBox="0 0 95 95" version="1.1" xmlns="http://www.w3.org/2000/svg" xmlns:xlink="http://www.w3.org/1999/xlink">
    <!-- Generator: Sketch 40.2 (33826) - http://www.bohemiancoding.com/sketch -->
    <title>Group 5</title>
    <desc>Created with Sketch.</desc>
    <defs></defs>
    <g id="Page-1" stroke="none" stroke-width="1" fill="none" fill-rule="evenodd">
        <g id="Artboard" transform="translate(-471.000000, -114.000000)">
            <g id="Group-5" transform="translate(471.000000, 114.000000)">
                <g id="Artboard">
                    <path d="M28.9254889,91.2310082 L32.0449846,86.1875778 C33.5562495,86.7860494 35.1179691,87.3040074 36.7263728,87.7349776 C37.5464579,87.9547186 38.3673395,88.1488069 39.1881572,88.317736 L39.3698824,94.3069335 C41.3355423,94.6459579 43.3425499,94.8641762 45.3829843,94.9536673 L46.5840858,89.1730216 C49.1776361,89.2424742 51.7441213,89.0707912 54.2555687,88.6740122 L56.4427011,94.1594706 C58.420487,93.7826902 60.354794,93.2832752 62.2374101,92.6694398 L61.3986567,86.8932553 C63.8798803,86.0383967 66.2715769,84.9554534 68.5419693,83.6626454 L72.3834384,87.9684795 C74.0832915,86.9210384 75.7121571,85.7694932 77.2611474,84.5227323 L74.5629126,79.503618 C76.584369,77.8299468 78.4540023,75.9623816 80.1397751,73.9192947 L85.0691488,76.5692853 C86.2947787,74.9875888 87.422735,73.3263986 88.4439714,71.5947621 L84.2822283,67.8818438 C85.5429695,65.6422488 86.6099243,63.2583887 87.4553277,60.7461847 L92.8921968,61.5356669 C93.4873248,59.6087874 93.9631345,57.6295306 94.3109961,55.6065269 L89.189942,53.5646881 C89.5718458,51.0211445 89.712068,48.4849749 89.6257348,45.9822004 L94.9289826,44.8802926 C94.8149837,42.7830388 94.5649377,40.7219842 94.1875152,38.7058005 L88.6888508,38.5389644 C88.1670644,36.1578697 87.4388359,33.83504 86.5187724,31.5956037 L91.1482698,28.7321366 C90.3054363,26.774572 89.3347662,24.8850031 88.2467716,23.0739425 L82.9807381,24.811654 C81.7378777,22.878859 80.3359338,21.045186 78.7874152,19.3321532 L82.1753696,15.0364211 C80.6927368,13.4534217 79.1029582,11.9720055 77.4176026,10.6037404 L73.0423028,14.0544481 C71.3188745,12.74407 69.4818365,11.5577788 67.5411154,10.5126496 L69.2705707,5.27163611 C67.3169274,4.26240715 65.2842681,3.3847707 63.1843171,2.65045147 L60.2320026,7.42359341 C59.6250526,7.23160398 59.01093,7.05221422 58.3898462,6.8857953 C56.9802668,6.50809965 55.5683342,6.20619145 54.158418,5.97756532 L53.9903936,0.439735445 C51.8683378,0.149790165 49.7016616,-2.84217094e-14 47.5,-2.84217094e-14 C47.4262572,-2.84217094e-14 47.3525536,0.000168043433 47.2788897,0.000503768254 L46.1462468,5.45167265 C44.1098113,5.51293463 42.0957005,5.72201265 40.1177627,6.07096577 L38.0703556,0.935946295 C35.8313977,1.38689029 33.6494391,1.99527457 31.5365259,2.74905308 L32.3326796,8.2318682 C30.4644759,8.94940997 28.6519458,9.79795565 26.9092377,10.7693922 L23.2384383,6.65485876 C21.285401,7.81744272 19.4228202,9.11612356 17.663777,10.5378202 L20.2581806,15.3637935 C18.7227687,16.6589484 17.2771704,18.0671087 15.9357399,19.5800432 L11.1004857,16.9806503 C9.65355145,18.7045497 8.3268212,20.5327343 7.13319779,22.4523016 L11.2082935,26.0879164 C10.1752557,27.8474638 9.26319863,29.6993347 8.48611037,31.6355079 L3.00393799,30.8394477 C2.2285491,32.9093759 1.59345896,35.0478394 1.11024437,37.2432614 L6.23126146,39.2850855 C5.81901966,41.4057193 5.57694115,43.5254247 5.49628074,45.6291575 L0.00549517552,46.7700318 C0.00183610641,47.012914 0,47.2562426 0,47.5 C0,49.4728455 0.120273048,51.4175997 0.353886779,53.3273302 L5.94605284,53.4970034 C6.28405416,55.6970919 6.7970618,57.8564665 7.47409541,59.9562373 L2.58056898,62.9830132 C3.28351816,65.0228051 4.12149231,66.9997153 5.08381131,68.9030638 L10.5351044,67.1042191 C11.6331297,69.1283268 12.8968196,71.0626534 14.313566,72.8855102 L10.6725294,77.5021356 C11.9989371,79.128332 13.4309121,80.6650236 14.958003,82.1017577 L19.545701,78.4835359 C21.3240029,80.0688522 23.2477792,81.5126038 25.3035518,82.7916035 L23.4329641,88.4603103 C25.1942105,89.4973996 27.0282207,90.4241345 28.9254889,91.2310082 L28.9254889,91.2310082 Z" id="Combined-Shape" fill="#DA9926"></path>
                    <circle id="Oval-3" stroke="#FFFFFF" stroke-width="5.14499987" cx="47.5" cy="47.5" r="33.8505747"></circle>
                    <ellipse id="Oval-5" fill="#FFFFFF" cx="56.5086207" cy="33.0316092" rx="6.82471264" ry="6.82471264"></ellipse>
                    <ellipse id="Oval-5-Copy-2" stroke="#FFFFFF" stroke-width="4" cx="30.8477011" cy="48.3189655" rx="6.82471264" ry="6.82471264"></ellipse>
                    <ellipse id="Oval-5-Copy" fill="#FFFFFF" cx="60.8764368" cy="60.8764368" rx="6.82471264" ry="6.82471264"></ellipse>
                    <path d="M51.5,35.5 L36.5,43.5" id="Line" stroke="#FFFFFF" stroke-width="5"></path>
                    <path d="M55.0597167,59.2408616 L36.5,51.5" id="Line-Copy" stroke="#FFFFFF" stroke-width="5"></path>
                </g>
            </g>
        </g>
    </g>
</svg>