<?xml version="1.0" encoding="UTF-8"?>
<svg width="102px" height="96px" viewBox="0 0 102 96" version="1.1" xmlns="http://www.w3.org/2000/svg" xmlns:xlink="http://www.w3.org/1999/xlink">
    <!-- Generator: Sketch 40.2 (33826) - http://www.bohemiancoding.com/sketch -->
    <title>cog_wheel</title>
    <desc>Created with Sketch.</desc>
    <defs>
        <rect id="path-1" x="0" y="0" width="102" height="96"></rect>
        <rect id="path-3" x="0" y="0" width="102" height="96"></rect>
        <rect id="path-5" x="0" y="0" width="102" height="96"></rect>
    </defs>
    <g id="Page-1" stroke="none" stroke-width="1" fill="none" fill-rule="evenodd">
        <g id="Artboard" transform="translate(-590.000000, -114.000000)">
            <g id="cog_wheel" transform="translate(590.000000, 114.000000)">
                <g id="Combined-Shape-+-Combined-Shape-Copy-+-Combined-Shape-Copy-2-Mask">
                    <g id="Page-1">
                        <g id="Artboard">
                            <g id="Combined-Shape-+-Combined-Shape-Copy-+-Combined-Shape-Copy-2-Mask">
                                <g id="Combined-Shape-Clipped">
                                    <mask id="mask-2" fill="white">
                                        <use xlink:href="#path-1"></use>
                                    </mask>
                                    <g id="path-1"></g>
                                    <path d="M67.2781734,63.2952073 L62.4849037,68.6714728 C59.6524798,67.9178408 56.979791,66.7651368 54.528996,65.2763035 L54.8910754,58.097831 C53.3636466,56.877287 51.9818943,55.4780984 50.7765606,53.9313952 L43.7886601,54.2928139 C42.3259842,51.767648 41.2048762,49.0150682 40.4895821,46.1001324 L45.6439519,41.3879854 C45.5319624,40.4213383 45.4743759,39.4378474 45.4743759,38.4407363 C45.4743759,37.4436255 45.5319624,36.4601343 45.6439519,35.4934872 L40.5421988,30.8294427 C41.2838038,27.8958295 42.4370922,25.1291564 43.9360429,22.5962769 L50.7765606,22.9500776 C51.9818943,21.4033743 53.3636466,20.0041857 54.8910754,18.7836419 L54.5416881,11.8568018 C57.0429994,10.3389387 59.7751952,9.17109713 62.6722505,8.42013361 L67.2781734,13.5862653 C68.2327745,13.4728629 69.2040098,13.4145495 70.1886949,13.4145495 C71.1733804,13.4145495 72.1446153,13.4728629 73.0992164,13.5862653 L77.7526423,8.36685298 C80.6312531,9.09117345 83.3495312,10.2264284 85.8432332,11.7075642 L85.4863145,18.7836419 C87.0137433,20.0041857 88.3954956,21.4033743 89.6008296,22.9500776 L96.6898465,22.5834291 C98.1601265,25.0651505 99.2984659,27.7715657 100.042706,30.6397316 L94.733438,35.4934872 C94.8454275,36.4601343 94.903014,37.4436255 94.903014,38.4407363 C94.903014,39.4378474 94.8454275,40.4213383 94.733438,41.3879854 L100.096468,46.2908901 C99.3782421,49.1401321 98.2717336,51.8321286 96.8373811,54.3056783 L89.6008296,53.9313952 C88.3954956,55.4780984 87.0137433,56.877287 85.4863145,58.097831 L85.8559297,65.425702 C83.4132083,66.8781522 80.7547586,67.9986237 77.9410228,68.7259127 L73.0992164,63.2952073 C72.1446153,63.4086099 71.1733804,63.4669231 70.1886949,63.4669231 C69.2040098,63.4669231 68.2327745,63.4086099 67.2781734,63.2952073 L67.2781734,63.2952073 Z M70.1886949,55.6867615 C79.5947179,55.6867615 87.2198061,47.965453 87.2198061,38.4407363 C87.2198061,28.9160197 79.5947179,21.1947112 70.1886949,21.1947112 C60.782672,21.1947112 53.1575838,28.9160197 53.1575838,38.4407363 C53.1575838,47.965453 60.782672,55.6867615 70.1886949,55.6867615 L70.1886949,55.6867615 Z" id="Combined-Shape" fill="#DA9926" mask="url(#mask-2)" transform="translate(70.293025, 38.546383) rotate(15.000000) translate(-70.293025, -38.546383) "></path>
                                </g>
                                <g id="Combined-Shape-Copy-Clipped">
                                    <mask id="mask-4" fill="white">
                                        <use xlink:href="#path-3"></use>
                                    </mask>
                                    <g id="path-1"></g>
                                    <path d="M20.6909689,41.3828886 L17.1685091,45.3337777 C15.0870283,44.7799518 13.1229329,43.932857 11.321902,42.8387488 L11.5879855,37.5634601 C10.4655145,36.6665115 9.4500976,35.6382812 8.56432644,34.5016459 L3.42908497,34.7672437 C2.35419909,32.9115596 1.53032365,30.8887543 1.00467094,28.7466374 L4.79249459,25.2837928 C4.71019636,24.5734269 4.66787728,23.8506826 4.66787728,23.1179296 C4.66787728,22.3851765 4.71019636,21.6624323 4.79249459,20.9520663 L1.04333769,17.5245711 C1.58832573,15.3687286 2.43584986,13.3355664 3.53739307,11.4742136 L8.56432644,11.7342133 C9.4500976,10.5975779 10.4655145,9.56934751 11.5879855,8.67239889 L11.3312292,3.58202908 C13.1693832,2.46658763 15.1772088,1.60836866 17.3061859,1.05650347 L20.6909689,4.85297064 C21.3924825,4.7696339 22.1062201,4.7267808 22.8298419,4.7267808 C23.5534636,4.7267808 24.2672013,4.7696339 24.9687149,4.85297064 L28.3884067,1.01734879 C30.5038292,1.54963466 32.5014271,2.38390651 34.3339891,3.47235792 L34.0716983,8.67239889 C35.1941692,9.56934751 36.2095861,10.5975779 37.0953572,11.7342133 L42.3049071,11.4647721 C43.3853809,13.28853 44.2219195,15.2774101 44.7688438,17.3851569 L40.8671892,20.9520663 C40.9494873,21.6624323 40.9918066,22.3851765 40.9918066,23.1179296 C40.9918066,23.8506826 40.9494873,24.5734269 40.8671892,25.2837928 L44.8083519,28.8868206 C44.2805451,30.9806608 43.4673982,32.9589449 42.4133268,34.7766977 L37.0953572,34.5016459 C36.2095861,35.6382812 35.1941692,36.6665115 34.0716983,37.5634601 L34.3433196,42.9485383 C32.5482219,44.0159094 30.5945905,44.8393172 28.526843,45.3737844 L24.9687149,41.3828886 C24.2672013,41.4662251 23.5534636,41.5090785 22.8298419,41.5090785 C22.1062201,41.5090785 21.3924825,41.4662251 20.6909689,41.3828886 L20.6909689,41.3828886 Z M22.8298419,35.7916227 C29.7421041,35.7916227 35.3455998,30.117417 35.3455998,23.1179296 C35.3455998,16.1184421 29.7421041,10.4442364 22.8298419,10.4442364 C15.9175796,10.4442364 10.3140839,16.1184421 10.3140839,23.1179296 C10.3140839,30.117417 15.9175796,35.7916227 22.8298419,35.7916227 L22.8298419,35.7916227 Z" id="Combined-Shape-Copy" fill="#DA9926" mask="url(#mask-4)" transform="translate(22.906511, 23.195567) rotate(-6.000000) translate(-22.906511, -23.195567) "></path>
                                </g>
                                <g id="Combined-Shape-Copy-2-Clipped">
                                    <mask id="mask-6" fill="white">
                                        <use xlink:href="#path-5"></use>
                                    </mask>
                                    <g id="path-1"></g>
                                    <path d="M23.7752473,90.1508515 L19.8667939,94.534682 C17.557223,93.9201673 15.3779007,92.9802472 13.3795115,91.766246 L13.6747527,85.9128875 C12.4292805,84.9176507 11.3025935,83.7767462 10.3197589,82.5155574 L4.62179415,82.81026 C3.42912154,80.7512282 2.51496525,78.5067628 1.93171115,76.1299112 L6.13460715,72.2876056 C6.04329061,71.4993974 5.99633416,70.6974543 5.99633416,69.8844056 C5.99633416,69.0713569 6.04329061,68.269414 6.13460715,67.4812056 L1.97461503,63.6781231 C2.57932324,61.286042 3.51971966,59.0300845 4.74197073,56.9647633 L10.3197589,57.2532537 C11.3025935,55.9920653 12.4292805,54.8511607 13.6747527,53.8559237 L13.3898609,48.2077475 C15.429441,46.9700753 17.6572856,46.0178123 20.0195574,45.4054733 L23.7752473,49.6179599 C24.5536332,49.525491 25.3455827,49.4779422 26.1484994,49.4779422 C26.9514162,49.4779422 27.7433657,49.525491 28.5217516,49.6179599 L32.3161756,45.3620281 C34.6634077,45.9526419 36.8799034,46.8783341 38.9132793,48.0860588 L38.6222461,53.8559237 C39.8677184,54.8511607 40.9944054,55.9920653 41.9772398,57.2532537 L47.7576558,56.9542869 C48.9565285,58.9778937 49.8847357,61.1847167 50.4915925,63.5234319 L46.1623918,67.4812056 C46.2537084,68.269414 46.3006647,69.0713569 46.3006647,69.8844056 C46.3006647,70.6974543 46.2537084,71.4993974 46.1623918,72.2876056 L50.53543,76.2854559 C49.9497854,78.6087405 49.0475338,80.8038064 47.8779561,82.8207496 L41.9772398,82.5155574 C40.9944054,83.7767462 39.8677184,84.9176507 38.6222461,85.9128875 L38.923632,91.8880662 C36.9318264,93.0724008 34.7641146,93.9860379 32.469782,94.5790727 L28.5217516,90.1508515 C27.7433657,90.2433204 26.9514162,90.2908693 26.1484994,90.2908693 C25.3455827,90.2908693 24.5536332,90.2433204 23.7752473,90.1508515 L23.7752473,90.1508515 Z M26.1484994,83.9468911 C33.8182123,83.9468911 40.035743,77.6509019 40.035743,69.8844056 C40.035743,62.1179096 33.8182123,55.8219203 26.1484994,55.8219203 C18.4787867,55.8219203 12.261256,62.1179096 12.261256,69.8844056 C12.261256,77.6509019 18.4787867,83.9468911 26.1484994,83.9468911 L26.1484994,83.9468911 Z" id="Combined-Shape-Copy-2" fill="#DA9926" mask="url(#mask-6)" transform="translate(26.233571, 69.970550) rotate(23.000000) translate(-26.233571, -69.970550) "></path>
                                </g>
                            </g>
                        </g>
                    </g>
                </g>
            </g>
        </g>
    </g>
</svg>