<?xml version="1.0" encoding="UTF-8"?>
<svg width="96px" height="97px" viewBox="0 0 96 97" version="1.1" xmlns="http://www.w3.org/2000/svg" xmlns:xlink="http://www.w3.org/1999/xlink">
    <!-- Generator: Sketch 40.2 (33826) - http://www.bohemiancoding.com/sketch -->
    <title>Group 6</title>
    <desc>Created with Sketch.</desc>
    <defs></defs>
    <g id="Page-1" stroke="none" stroke-width="1" fill="none" fill-rule="evenodd">
        <g id="Artboard" transform="translate(-598.000000, -108.000000)" fill="#DA9926">
            <g id="Group-6" transform="translate(598.000000, 108.000000)">
                <ellipse id="Oval-2" cx="48" cy="21" rx="48" ry="21"></ellipse>
                <path d="M94.0122605,35 C95.3055255,36.8307161 96,38.7700791 96,40.7777778 C96,51.9462027 74.509668,61 48,61 C21.490332,61 0,51.9462027 0,40.7777778 C0,38.7700791 0.694474529,36.8307161 1.98773951,35 C7.88864825,43.3531903 26.2558585,49.4444444 48,49.4444444 C69.7441415,49.4444444 88.1113518,43.3531903 94.0122605,35 Z" id="Combined-Shape"></path>
                <path d="M94.0122605,53 C95.3055255,54.8307161 96,56.7700791 96,58.7777778 C96,69.9462027 74.509668,79 48,79 C21.490332,79 0,69.9462027 0,58.7777778 C0,56.7700791 0.694474529,54.8307161 1.98773951,53 C7.88864825,61.3531903 26.2558585,67.4444444 48,67.4444444 C69.7441415,67.4444444 88.1113518,61.3531903 94.0122605,53 Z" id="Combined-Shape-Copy"></path>
                <path d="M94.0122605,71 C95.3055255,72.8307161 96,74.7700791 96,76.7777778 C96,87.9462027 74.509668,97 48,97 C21.490332,97 0,87.9462027 0,76.7777778 C0,74.7700791 0.694474529,72.8307161 1.98773951,71 C7.88864825,79.3531903 26.2558585,85.4444444 48,85.4444444 C69.7441415,85.4444444 88.1113518,79.3531903 94.0122605,71 Z" id="Combined-Shape-Copy-2"></path>
            </g>
        </g>
    </g>
</svg>