<?xml version="1.0" encoding="UTF-8" standalone="no"?>
<svg version="1.1" xmlns="http://www.w3.org/2000/svg" xmlns:xlink="http://www.w3.org/1999/xlink">
    <symbol id="CA" viewBox="0 0 108 184">
      <g stroke="none" stroke-width="1" fill="none" fill-rule="evenodd">
          <g id="R2-Copy" transform="translate(-830.000000, -395.000000)" fill="#535353">
              <g id="Group-2" transform="translate(318.000000, 359.000000)">
                  <path d="M606.527681,220 L609.466685,219.623785 L610.611479,218.075067 L611.175417,216.580516 L608.728336,216.511128 L607.881574,215.153674 L608.481088,213.833456 L608.445512,209.097588 L610.154252,208.075258 L612.232157,206.08648 L612.548839,202.301853 L613.817261,199.608944 L615.314303,197.989144 L617.832527,196.668926 L618.818124,196.10699 L619.400698,194.964501 L618.731766,194.277308 L617.991715,193.1145 L617.270291,188.996436 L615.03319,184.964691 L615.107961,182.819405 L613.412518,180.318546 L601.857843,162.432977 L586.887399,140.324422 L569.61043,114.889924 L559.824901,99.8412297 L561.209025,94.2911347 L566.457152,74.3118429 L572.709515,50.1078485 L563.183643,47.5384944 L552.792392,44.898058 L543.105636,41.7295329 L537.293582,40.1452742 L528.48744,37.8568997 L523.055738,36 L521.838469,39.637543 L521.713931,45.3632185 L517.728729,54.4496151 L515.362515,56.4411567 L515.11344,57.3124528 L513.743526,57.9348149 L512.622688,61.1710652 L512,63.6604903 L514.117139,66.8967407 L515.362515,70.132991 L516.234278,72.8713579 L515.985203,77.8502081 L514.615289,80.2151623 L514.117139,84.6961291 L513.369913,87.5589668 L514.739827,90.5462754 L516.856966,94.0314675 L518.600492,97.765609 L519.596792,100.877388 L519.347718,103.366814 L519.098643,103.740226 L519.098643,105.358347 L523.457458,110.212727 L523.083845,112.079798 L522.585695,113.822397 L522.087545,115.316048 L522.212082,121.664085 L523.83107,124.526923 L525.325522,126.518457 L527.442661,126.891877 L528.189886,129.007882 L527.318123,131.746249 L525.699134,132.990965 L524.827371,132.990965 L524.204684,135.978274 L524.578296,138.218757 L527.069048,141.579479 L528.314424,145.687033 L529.435262,149.296696 L530.431563,151.66165 L533.046852,156.142617 L534.16769,158.134151 L534.541303,160.374634 L535.786679,161.121459 L535.786679,162.98853 L535.163991,164.482188 L533.794078,169.958922 L533.420464,171.452572 L535.288529,173.568585 L538.526506,173.941997 L542.013558,175.311185 L545.00246,176.929306 L547.244137,176.929306 L549.485813,179.29426 L551.478414,183.028402 L552.350178,184.770994 L555.33908,186.389123 L559.075208,187.011477 L560.196046,188.629606 L560.694196,191.119031 L559.573358,191.616915 L559.822433,192.36374 L562.313186,192.986094 L564.430325,193.110573 L566.672002,196.720236 L569.660906,199.956486 L570.283594,201.699086 L572.276196,204.935337 L572.525271,207.424762 L572.525271,214.644095 L572.898884,216.013275 L580.620217,217.13352 L595.813797,219.249525 L606.527681,220 Z M538.77583,181.72041 L539.772134,182.902891 L539.647597,183.898666 L537.156836,183.836431 L536.720953,182.902891 L536.222801,181.782646 L538.77583,181.72041 Z M540.270286,181.72041 L541.204321,181.222527 L543.944158,182.840656 L546.310381,183.774188 L545.625421,184.272086 L542.138357,184.085372 L540.892977,182.840656 L540.270286,181.72041 Z M556.211154,196.968192 L557.581067,198.773028 L558.203764,199.51986 L559.386874,199.955509 L559.822752,198.835263 L559.075527,197.466076 L557.020652,195.910182 L556.211154,196.034653 L556.211154,196.968192 Z M555.090308,203.627422 L556.460229,206.05462 L557.394265,207.548286 L556.273419,207.734984 L555.277118,206.801453 C555.277118,206.801453 554.716695,205.681207 554.716695,205.370022 L554.716695,203.689658 L555.090308,203.627422 Z" id="CA"></path>
              </g>
          </g>
      </g>
    </symbol>
</svg>
