<?xml version="1.0" encoding="UTF-8" standalone="no"?>
<svg width="304px" height="262px" viewBox="0 0 304 262" version="1.1" xmlns="http://www.w3.org/2000/svg" xmlns:xlink="http://www.w3.org/1999/xlink">
    <!-- Generator: Sketch 40.3 (33839) - http://www.bohemiancoding.com/sketch -->
    <title>h2 copy</title>
    <desc>Created with Sketch.</desc>
    <defs>
        <filter x="-50%" y="-50%" width="200%" height="200%" filterUnits="objectBoundingBox" id="filter-1">
            <feOffset dx="0" dy="3" in="SourceAlpha" result="shadowOffsetOuter1"></feOffset>
            <feGaussianBlur stdDeviation="1" in="shadowOffsetOuter1" result="shadowBlurOuter1"></feGaussianBlur>
            <feColorMatrix values="0 0 0 0 0   0 0 0 0 0   0 0 0 0 0  0 0 0 0.5 0" type="matrix" in="shadowBlurOuter1" result="shadowMatrixOuter1"></feColorMatrix>
            <feMerge>
                <feMergeNode in="shadowMatrixOuter1"></feMergeNode>
                <feMergeNode in="SourceGraphic"></feMergeNode>
            </feMerge>
        </filter>
    </defs>
    <g id="Page-1" stroke="none" stroke-width="1" fill="none" fill-rule="evenodd">
        <g id="h2-copy" filter="url(#filter-1)" transform="translate(2.000000, 0.000000)">
            <path d="M299.224084,166.567346 L229.429794,166.567346 L229.429794,218.976386 L299.346117,218.976386 L285.84495,192.652901 L299.224084,166.567346 Z" id="Combined-Shape" fill="#13596A"></path>
            <path d="M0.838660685,166.567346 L70.5702059,166.567346 L70.5702059,218.976386 L0.591138252,218.976386 L14.1550503,192.530566 L0.838660685,166.567346 Z" id="Combined-Shape" fill="#13596A"></path>
            <polygon id="Rectangle-26" fill="#014455" points="25.916934 197.182528 62.8498728 197.182528 62.8498728 218.976386 25.916934 211.744414"></polygon>
            <polygon id="Rectangle-26-Copy" fill="#014455" transform="translate(254.314134, 208.079457) scale(-1, 1) translate(-254.314134, -208.079457) " points="235.785334 197.182528 272.842933 197.182528 272.842933 218.976386 235.785334 211.696895"></polygon>
            <ellipse id="Oval-17-Copy" fill="#D8D5B4" cx="149.574948" cy="128.428094" rx="127.385496" ry="128.428094"></ellipse>
            <ellipse id="Oval-17" fill="#014455" cx="149.574948" cy="128.428094" rx="109.371386" ry="110.266545"></ellipse>
            <path d="M89.1479969,120.203391 C89.053224,118.238928 87.4136236,111.719007 86.8933059,108.034067 C86.3729881,104.349128 86.3728043,100.549216 86.3728043,100.549216 C86.3728043,100.549216 85.6325762,97.0638608 87.9220196,92.2996008 C90.211463,87.5353408 94.4944809,83.6482615 94.4944809,83.6482615 C94.4944809,83.6482615 97.5411167,80.9043996 99.4147171,79.9495227 C101.228895,79.0249304 102.02007,78.5080061 106.318984,78.2793651 C110.617898,78.050724 114.297872,79.1579507 114.297872,79.1579507 C114.297872,79.1579507 126.621799,83.4678419 133.191802,85.4814482 C139.761806,87.4950546 139.964648,88.3960075 146.386115,88.9925105 C152.807583,89.5890135 155.463015,88.9925105 159.062845,87.1547865 C162.662675,85.3170624 166.686749,80.3322646 170.336467,77.4899275 C173.986185,74.6475904 173.254381,74.6160161 178.059565,72.3604699 C182.864748,70.1049236 188.265159,69.0742251 188.265159,69.0742251 C188.265159,69.0742251 189.487408,68.8947632 190.32275,67.6126393 C191.158092,66.3305153 190.733803,64.6844995 190.733803,64.6844995 C190.733803,64.6844995 190.116572,61.7616061 190.32275,60.6758594 C190.528928,59.5901127 193.893393,50.1423489 194.258375,49.3001885 C194.623357,48.4580282 195.277941,47.7885191 195.8522,47.7404677 C196.42646,47.6924163 197.139755,48.784813 197.139755,48.784813 C197.139755,48.784813 199.85721,52.4643864 200.823348,55.9305712 C201.789486,59.3967561 201.293909,63.2788488 201.293909,63.2788488 C201.293909,63.2788488 201.507462,64.4935012 202.49345,64.6844995 C203.479437,64.8754978 204.069424,64.4587788 204.581174,63.5707947 C205.092923,62.6828105 209.816125,51.8164941 209.816125,51.8164941 C209.816125,51.8164941 210.550765,50.0364702 211.410131,50.0222226 C212.269498,50.0079749 213.429423,52.0990736 213.429423,52.0990736 C213.429423,52.0990736 214.537528,54.6384034 215.021805,57.3199438 C215.506083,60.0014841 215.611429,60.7129392 215.361242,62.7959385 C215.111056,64.8789378 213.880814,66.8195994 213.880814,66.8195994 C213.880814,66.8195994 211.858831,69.610895 211.128459,70.5407023 C210.398087,71.4705097 210.057292,71.5317392 209.816125,72.6929353 C209.574958,73.8541315 210.220452,74.9126793 210.220452,74.9126793 C210.220452,74.9126793 211.600324,76.6984701 212.303147,78.2793651 C213.00597,79.8602601 213.187911,81.5875359 213.187911,81.5875359 C213.187911,81.5875359 213.497443,88.5223517 213.880814,90.7229284 C214.264184,92.9235052 215.002818,92.9464307 215.785441,95.2552421 C216.568063,97.5640535 216.869728,99.5405124 216.869728,99.5405124 C216.869728,99.5405124 217.71297,105.8683 217.334322,107.525992 C216.955675,109.183683 217.320913,109.63209 214.580082,110.962076 C211.83925,112.292062 208.548024,111.789536 208.548024,111.789536 C208.548024,111.789536 205.95847,111.65456 203.49333,110.633381 C201.028191,109.612203 198.894429,107.790556 198.894429,107.790556 C198.894429,107.790556 197.058648,105.573297 196.149884,104.780122 C195.241121,103.986947 195.110302,103.509985 193.89626,103.428121 C192.682218,103.346257 191.497993,104.527151 191.497993,104.527151 C191.497993,104.527151 189.574742,105.873479 187.955429,107.760606 C186.336117,109.647733 185.159889,111.913499 185.159889,111.913499 L183.076115,117.744708 C183.076115,117.744708 178.521622,131.779323 176.924007,140.236089 C175.326392,148.692855 175.615724,155.103106 175.571761,157.468029 C175.527798,159.832952 176.516902,162.135631 176.516902,162.135631 C176.516902,162.135631 177.245031,163.006639 177.590227,164.747992 C177.935423,166.489345 177.884072,167.793271 177.884072,167.793271 C177.884072,167.793271 177.632923,169.213845 178.780695,171.494276 C179.928466,173.774708 181.696203,176.074653 181.696203,176.074653 C181.696203,176.074653 184.644665,180.359755 185.159889,181.481594 C185.675114,182.603434 185.747565,183.805008 185.528483,184.418986 C185.309402,185.032965 184.069785,185.087886 184.069785,185.087886 L169.850572,185.063205 L169.118485,180.673775 C169.118485,180.673775 168.803612,179.784714 168.287897,179.671238 C167.772182,179.557762 167.131501,180.258704 167.131501,180.258704 L164.840765,182.820504 L155.242959,171.732904 C155.242959,171.732904 155.137819,171.168635 155.57297,170.666066 C156.00812,170.163496 156.704177,169.745908 156.704177,169.745908 C156.704177,169.745908 160.129196,167.478186 161.0972,166.133956 C162.065204,164.789726 161.401072,164.023057 161.993921,162.458266 C162.586769,160.893475 162.870359,161.314708 163.460875,157.468029 C164.05139,153.62135 163.66464,153.018086 162.875513,149.944845 C162.086387,146.871605 159.569266,139.904689 159.569266,139.904689 C159.569266,139.904689 158.909049,138.09104 157.419704,137.191096 C155.93036,136.291153 153.801794,136.202999 153.801794,136.202999 C153.801794,136.202999 145.839991,135.913762 143.306004,135.698551 C140.772017,135.48334 138.278543,134.884612 138.278543,134.884612 C138.278543,134.884612 133.813398,134.012208 132.466977,134.125118 C131.120556,134.238029 130.239301,135.712694 130.239301,135.712694 L128.45908,138.942106 L124.258755,147.290322 C124.258755,147.290322 123.898512,148.804376 123.865314,149.944845 C123.832116,151.085315 124.114893,152.232472 124.114893,152.232472 C124.114893,152.232472 125.097116,153.523167 125.540047,155.080662 C125.982977,156.638157 125.726531,157.707089 125.726531,157.899542 C125.726531,158.091995 139.204693,176.816579 139.204693,176.816579 C139.204693,176.816579 139.561558,177.833292 139.509813,178.682861 C139.458069,179.53243 138.804752,180.063926 138.804752,180.063926 C138.804752,180.063926 138.728539,181.139934 135.739126,181.672946 C132.749713,182.205959 129.792218,181.915066 129.792218,181.915066 C129.792218,181.915066 128.539012,181.831406 127.523345,181.245316 C126.507677,180.659227 126.040111,179.514551 126.040111,179.514551 L122.428712,172.513287 C122.428712,172.513287 122.224719,171.837063 120.749469,170.334109 C119.274219,168.831155 117.790878,167.8764 117.790878,167.8764 C117.790878,167.8764 117.169074,167.635682 116.749609,166.41724 C116.330143,165.198799 116.469415,164.099472 116.469415,164.099472 C116.469415,164.099472 116.83902,159.389986 116.865985,158.746158 C116.89295,158.10233 116.958606,157.706077 116.749609,157.409514 C116.540612,157.112951 108.829065,150.303323 107.908814,149.289169 C106.988563,148.275016 106.661858,147.945324 106.598388,146.222463 C106.534919,144.499602 107.226672,143.148799 107.226672,143.148799 C107.226672,143.148799 108.905162,139.122283 109.100453,138.298983 C109.295744,137.475684 109.119616,136.830032 108.810474,136.471877 C108.501332,136.113721 107.908814,136.051206 107.553455,136.202999 C107.198097,136.354792 104.110399,141.786317 104.110399,141.786317 C104.110399,141.786317 101.861182,144.961495 101.265896,147.48722 C100.670611,150.012945 100.672856,161.369575 100.832624,163.797013 C100.992392,166.224452 102.189279,166.365073 102.715242,169.394702 C102.971154,170.86879 102.932784,172.015441 102.847935,172.870011 C102.758398,173.771801 102.853235,174.649953 102.99661,174.963052 C103.139984,175.276151 109.527636,181.245316 109.527636,181.245316 C109.527636,181.245316 110.422004,182.315492 110.463209,183.008235 C110.504415,183.700978 109.611873,184.575983 109.611873,184.575983 C109.611873,184.575983 108.982737,185.836872 105.828018,186.508051 C102.673298,187.179229 100.530435,186.716686 100.530435,186.716686 C100.530435,186.716686 98.808689,186.606209 97.0408153,185.231539 C95.5061586,184.038214 94.0095683,181.672946 94.0095683,181.672946 C94.0095683,181.672946 90.674691,176.201018 90.419596,175.063815 C90.164501,173.926612 90.1342951,160.457327 89.9470251,159.601742 C89.7597551,158.746158 87.9642029,157.860337 87.5555631,155.547299 C87.1469234,153.23426 88.0702805,150.517953 88.0702805,150.517953 C88.0702805,150.517953 91.153616,140.122298 91.5470987,137.191096 C91.9405813,134.259895 91.6731397,131.500014 91.6731397,131.500014 C91.6731397,131.500014 91.5484831,129.396875 90.5611537,129.358923 C89.5738243,129.32097 88.4142112,130.889708 88.4142112,130.889708 C88.4142112,130.889708 84.8073011,134.926248 83.8167625,136.855974 C82.8262239,138.785699 83.7705609,139.810667 83.1664896,141.310908 C82.5624183,142.811148 81.9519784,142.54252 80.9946168,144.533012 C80.6857956,145.175095 80.8426071,146.458152 80.6757708,146.987389 C80.3254059,148.098813 80.1025562,147.98187 79.5945812,148.015097 C79.0866061,148.048324 78.9237765,147.642727 78.7176197,147.115473 C78.4263576,146.370559 78.1101066,144.412242 78.1101066,144.412242 C78.1101066,144.412242 77.643095,141.898126 77.8131036,140.156282 C77.9831121,138.414438 77.9341965,138.201675 78.9345831,136.855974 C79.9349697,135.510272 80.1849595,136.288699 82.8142231,133.287435 C85.4434868,130.286171 87.4763429,127.31567 87.4763429,127.31567 C87.4763429,127.31567 88.2571305,126.291294 88.8289194,124.471335 C89.4007082,122.651375 89.2427698,122.167854 89.1479969,120.203391 Z" id="Path-69-Copy" fill="#D8D5B4" transform="translate(147.603973, 117.305481) rotate(-5.000000) translate(-147.603973, -117.305481) "></path>
            <polygon id="Star-2-Copy-7" fill="#A8313C" points="65.1659727 215.473802 60.4768115 217.959216 61.3723616 212.695023 57.5787505 208.966901 62.8213921 208.198865 65.1659727 203.409344 67.5105533 208.198865 72.7531949 208.966901 68.9595838 212.695023 69.8551339 217.959216"></polygon>
            <polygon id="Star-2-Copy-6" fill="#A8313C" points="234.498612 215.473802 229.809451 217.959216 230.705001 212.695023 226.91139 208.966901 232.154031 208.198865 234.498612 203.409344 236.843193 208.198865 242.085834 208.966901 238.292223 212.695023 239.187773 217.959216"></polygon>
            <polygon id="Rectangle-25-Copy-2" fill="#07647B" points="25.9104512 159.302726 272.842933 159.302726 272.842933 211.711766 25.9104512 211.711766"></polygon>
            <text id="HILLARY-CLINTON" font-family="Arial-BoldMT, Arial" font-size="26.5" font-weight="bold" fill="#D8D5B4">
                <tspan x="28.5940929" y="194.868307">HILLARY CLINTON</tspan>
            </text>
            <polygon id="Star-2" fill="#A8313C" points="149.574948 14.1400628 144.885787 16.6254777 145.781337 11.3612845 141.987726 7.63316219 147.230367 6.86512675 149.574948 2.07560555 151.919529 6.86512675 157.16217 7.63316219 153.368559 11.3612845 154.264109 16.6254777"></polygon>
            <polygon id="Star-2-Copy-2" fill="#A8313C" points="267.953389 132.449579 263.264228 134.934994 264.159778 129.670801 260.366167 125.942679 265.608808 125.174643 267.953389 120.385122 270.297969 125.174643 275.540611 125.942679 271.747 129.670801 272.64255 134.934994"></polygon>
            <polygon id="Star-2-Copy-3" fill="#A8313C" points="31.1965071 132.449579 26.5073459 134.934994 27.402896 129.670801 23.6092848 125.942679 28.8519265 125.174643 31.1965071 120.385122 33.5410877 125.174643 38.7837293 125.942679 34.9901182 129.670801 35.8856683 134.934994"></polygon>
            <polygon id="Star-2-Copy-4" fill="#A8313C" points="65.1659727 49.4253573 60.4768115 51.9107721 61.3723616 46.6465789 57.5787505 42.9184566 62.8213921 42.1504212 65.1659727 37.3609 67.5105533 42.1504212 72.7531949 42.9184566 68.9595838 46.6465789 69.8551339 51.9107721"></polygon>
            <polygon id="Star-2-Copy-5" fill="#A8313C" points="234.498612 49.4253573 229.809451 51.9107721 230.705001 46.6465789 226.91139 42.9184566 232.154031 42.1504212 234.498612 37.3609 236.843193 42.1504212 242.085834 42.9184566 238.292223 46.6465789 239.187773 51.9107721"></polygon>
            <polygon id="Star-2-Copy-10" fill="#A8313C" points="197.441013 23.4802878 192.751852 25.9657027 193.647402 20.7015095 189.853791 16.9733872 195.096433 16.2053517 197.441013 11.4158305 199.785594 16.2053517 205.028235 16.9733872 201.234624 20.7015095 202.130174 25.9657027"></polygon>
            <polygon id="Star-2-Copy-11" fill="#A8313C" points="102.73826 23.4802878 98.0490993 25.9657027 98.9446494 20.7015095 95.1510383 16.9733872 100.39368 16.2053517 102.73826 11.4158305 105.082841 16.2053517 110.325483 16.9733872 106.531872 20.7015095 107.427422 25.9657027"></polygon>
            <polygon id="Star-2-Copy-13" fill="#A8313C" points="197.441013 241.418871 192.751852 243.904286 193.647402 238.640093 189.853791 234.91197 195.096433 234.143935 197.441013 229.354414 199.785594 234.143935 205.028235 234.91197 201.234624 238.640093 202.130174 243.904286"></polygon>
            <polygon id="Star-2-Copy-12" fill="#A8313C" points="102.73826 241.418871 98.0490993 243.904286 98.9446494 238.640093 95.1510383 234.91197 100.39368 234.143935 102.73826 229.354414 105.082841 234.143935 110.325483 234.91197 106.531872 238.640093 107.427422 243.904286"></polygon>
            <polygon id="Star-2-Copy-8" fill="#A8313C" points="259.718367 90.9374683 255.029206 93.4228832 255.924756 88.15869 252.131145 84.4305677 257.373786 83.6625322 259.718367 78.873011 262.062947 83.6625322 267.305589 84.4305677 263.511978 88.15869 264.407528 93.4228832"></polygon>
            <polygon id="Star-2-Copy-9" fill="#A8313C" points="39.431529 90.9374683 34.7423678 93.4228832 35.6379179 88.15869 31.8443068 84.4305677 37.0869484 83.6625322 39.431529 78.873011 41.7761096 83.6625322 47.0187512 84.4305677 43.2251401 88.15869 44.1206902 93.4228832"></polygon>
            <polygon id="Star-2-Copy" fill="#A8313C" points="149.574948 251.796899 144.885787 254.282314 145.781337 249.01812 141.987726 245.289998 147.230367 244.521963 149.574948 239.732441 151.919529 244.521963 157.16217 245.289998 153.368559 249.01812 154.264109 254.282314"></polygon>
        </g>
    </g>
</svg>