<?xml version="1.0" encoding="UTF-8"?>
<svg width="275px" height="229px" viewBox="0 0 275 229" version="1.1" xmlns="http://www.w3.org/2000/svg" xmlns:xlink="http://www.w3.org/1999/xlink">
    <!-- Generator: Sketch 40.2 (33826) - http://www.bohemiancoding.com/sketch -->
    <title>clinton_frame</title>
    <desc>Created with Sketch.</desc>
    <defs></defs>
    <g id="Page-1" stroke="none" stroke-width="1" fill="none" fill-rule="evenodd">
        <g id="clinton_frame" transform="translate(0.000000, 6.000000)">
            <g id="Page-1">
                <g id="R1-Copy">
                    <g id="h1-copy-2">
                        <g id="hilton-copy-5" transform="translate(32.000000, 0.000000)" stroke="#13596A" stroke-width="12">
                            <ellipse id="Oval-15-Copy" cx="105.5" cy="105.5" rx="105.5" ry="105.5"></ellipse>
                        </g>
                        <g id="Group-2" transform="translate(0.000000, 170.000000)">
                            <polygon id="Combined-Shape" fill="#13596A" points="274.322367 7.26060606 213.368687 7.26060606 213.368687 52.9656566 274.428942 52.9656566 262.637923 30.009384"></polygon>
                            <polygon id="Combined-Shape" fill="#13596A" points="0.7324303 7.26060606 61.6313131 7.26060606 61.6313131 52.9656566 0.5162607 52.9656566 12.3620773 29.9026979"></polygon>
                            <polygon id="Rectangle-26" fill="#014455" points="29.6341224 33.959596 61.8888889 33.959596 61.8888889 52.9656566 29.6341224 46.6587741"></polygon>
                            <polygon id="Rectangle-26-Copy" fill="#014455" transform="translate(229.101010, 43.462626) scale(-1, 1) translate(-229.101010, -43.462626) " points="212.919192 33.959596 245.282828 33.959596 245.282828 52.9656566 212.919192 46.6173336"></polygon>
                            <polygon id="Rectangle-25-Copy-2" fill="#07647B" points="29.6284607 0.925252525 245.282828 0.925252525 245.282828 46.630303 29.6284607 46.630303"></polygon>
                            <g id="HILLARY-CLINTON" transform="translate(35.000000, 12.000000)" font-size="22.5" font-family="Arial-BoldMT, Arial" fill="#D8D5B4" font-weight="bold">
                                <text>
                                    <tspan x="0.0691091" y="20.0114026">HILLARY CLINTON</tspan>
                                </text>
                            </g>
                        </g>
                    </g>
                </g>
            </g>
        </g>
    </g>
</svg>