<?xml version="1.0" encoding="UTF-8" standalone="no"?>
<svg width="176px" height="152px" viewBox="0 0 176 152" version="1.1" xmlns="http://www.w3.org/2000/svg" xmlns:xlink="http://www.w3.org/1999/xlink">
    <!-- Generator: sketchtool 40.3 (33839) - http://www.bohemiancoding.com/sketch -->
    <title>64C3B188-8E89-4B02-B7BC-4157A753D45E</title>
    <desc>Created with sketchtool.</desc>
    <defs>
        <filter x="-50%" y="-50%" width="200%" height="200%" filterUnits="objectBoundingBox" id="filter-1">
            <feOffset dx="0" dy="2" in="SourceAlpha" result="shadowOffsetOuter1"></feOffset>
            <feGaussianBlur stdDeviation="0.5" in="shadowOffsetOuter1" result="shadowBlurOuter1"></feGaussianBlur>
            <feColorMatrix values="0 0 0 0 0   0 0 0 0 0   0 0 0 0 0  0 0 0 0.5 0" type="matrix" in="shadowBlurOuter1" result="shadowMatrixOuter1"></feColorMatrix>
            <feMerge>
                <feMergeNode in="shadowMatrixOuter1"></feMergeNode>
                <feMergeNode in="SourceGraphic"></feMergeNode>
            </feMerge>
        </filter>
    </defs>
    <g id="Page-1" stroke="none" stroke-width="1" fill="none" fill-rule="evenodd">
        <g id="iPhone-7-Copy" transform="translate(-8.000000, -180.000000)">
            <g id="Hillary-Copy" filter="url(#filter-1)" transform="translate(-6.000000, 180.000000)">
                <path d="M188.881578,96.6242424 L148.245791,96.6242424 L148.245791,127.026263 L188.952628,127.026263 L181.091948,111.756242 L188.881578,96.6242424 Z" id="Combined-Shape" fill="#D05858"></path>
                <path d="M163.678451,99.3333333 L184.205387,99.3333333" id="Line" stroke="#D8D5B4" stroke-width="0.6" stroke-linecap="square"></path>
                <path d="M163.678451,123.715152 L184.205387,123.715152" id="Line-Copy-6" stroke="#D8D5B4" stroke-width="0.6" stroke-linecap="square"></path>
                <path d="M15.1549536,96.6242424 L55.7542088,96.6242424 L55.7542088,127.026263 L15.0108405,127.026263 L22.9080515,111.685277 L15.1549536,96.6242424 Z" id="Combined-Shape" fill="#D05858"></path>
                <path d="M20.2441077,99.9353535 L36.9957955,99.9353535" id="Line" stroke="#D8D5B4" stroke-width="0.6" stroke-linecap="square"></path>
                <path d="M20.2441077,123.715152 L36.9957955,123.715152" id="Line-Copy-6" stroke="#D8D5B4" stroke-width="0.6" stroke-linecap="square"></path>
                <polygon id="Rectangle-26" fill="#9C3333" points="29.7560816 114.383838 51.2592593 114.383838 51.2592593 127.026263 29.7560816 122.83106"></polygon>
                <polygon id="Rectangle-26-Copy" fill="#9C3333" transform="translate(162.734007, 120.705051) scale(-1, 1) translate(-162.734007, -120.705051) " points="151.946128 114.383838 173.521886 114.383838 173.521886 127.026263 151.946128 122.803494"></polygon>
                <ellipse id="Oval-17-Copy" fill="#D8D5B4" cx="101.752525" cy="74.5" rx="74.1666667" ry="74.5"></ellipse>
                <ellipse id="Oval-17" fill="#014455" cx="101.752525" cy="74.5" rx="63.6784512" ry="63.9646465"></ellipse>
                <path d="M66.5706115,69.7289228 C66.5154326,68.589355 65.5608209,64.8072066 65.2578803,62.6696059 C64.9549397,60.5320052 64.9548327,58.3277098 64.9548327,58.3277098 C64.9548327,58.3277098 64.5238555,56.3058862 65.8568203,53.5421812 C67.1897851,50.7784761 69.6834533,48.5236158 69.6834533,48.5236158 C69.6834533,48.5236158 71.4572724,46.9319259 72.5481242,46.3780102 C73.6043788,45.8416624 74.0650184,45.5417992 76.5679418,45.4091666 C79.0708653,45.2765339 81.2134276,45.9188263 81.2134276,45.9188263 C81.2134276,45.9188263 88.3886919,48.418956 92.2138938,49.5870313 C96.0390957,50.7551065 96.1571948,51.2777413 99.8959159,51.6237674 C103.634637,51.9697935 105.180689,51.6237674 107.27659,50.55772 C109.372491,49.4916725 111.715396,46.6000354 113.840343,44.9512208 C115.96529,43.3024063 115.539218,43.2840903 118.336902,41.9756679 C121.134587,40.6672455 124.278826,40.0693464 124.278826,40.0693464 C124.278826,40.0693464 124.990447,39.9652421 125.476801,39.2214934 C125.963156,38.4777446 125.716125,37.5229054 125.716125,37.5229054 C125.716125,37.5229054 125.35676,35.8273609 125.476801,35.1975288 C125.596843,34.5676968 127.555709,29.0871326 127.768209,28.5986029 C127.98071,28.1100731 128.361823,27.7216968 128.69617,27.6938226 C129.030516,27.6659484 129.445813,28.2996381 129.445813,28.2996381 C129.445813,28.2996381 131.027976,30.434126 131.590483,32.4448291 C132.15299,34.4555323 131.864454,36.7074999 131.864454,36.7074999 C131.864454,36.7074999 131.988789,37.412109 132.562853,37.5229054 C133.136917,37.6337019 133.48042,37.3919669 133.778372,36.8768551 C134.076324,36.3617434 136.826277,30.0582895 136.826277,30.0582895 C136.826277,30.0582895 137.254001,29.0257133 137.754343,29.0174484 C138.254686,29.0091835 138.93002,30.2222113 138.93002,30.2222113 C138.93002,30.2222113 139.575183,31.695254 139.85714,33.2507919 C140.139097,34.8063297 140.200432,35.2190385 140.054768,36.4273679 C139.909104,37.6356974 139.192829,38.761458 139.192829,38.761458 C139.192829,38.761458 138.015586,40.3806638 137.590347,40.9200369 C137.165109,41.4594099 136.96669,41.4949285 136.826277,42.1685282 C136.685865,42.8421278 137.061685,43.456182 137.061685,43.456182 C137.061685,43.456182 137.865078,44.4921034 138.274277,45.4091666 C138.683476,46.3262298 138.789406,47.3282072 138.789406,47.3282072 C138.789406,47.3282072 138.969622,51.3510324 139.192829,52.6275675 C139.416036,53.9041026 139.846085,53.9174015 140.301746,55.2567225 C140.757406,56.5960436 140.933042,57.7425699 140.933042,57.7425699 C140.933042,57.7425699 141.423996,61.4132636 141.203539,62.3748756 C140.983082,63.3364876 141.195732,63.5966045 139.599959,64.3681178 C138.004186,65.1396311 136.087961,64.8481199 136.087961,64.8481199 C136.087961,64.8481199 134.580265,64.7698215 133.145006,64.177445 C131.709747,63.5850685 130.467423,62.5283474 130.467423,62.5283474 C130.467423,62.5283474 129.39859,61.2421349 128.869488,60.7820211 C128.340386,60.3219073 128.26422,60.0452256 127.557378,59.9977371 C126.850536,59.9502486 126.161054,60.6352748 126.161054,60.6352748 C126.161054,60.6352748 125.041294,61.4162676 124.098494,62.5109732 C123.155695,63.6056789 122.470869,64.9200296 122.470869,64.9200296 L121.257649,68.3026628 C121.257649,68.3026628 118.605922,76.4440185 117.675755,81.3497135 C116.745588,86.2554085 116.914044,89.9739384 116.888447,91.3458094 C116.862851,92.7176803 117.43873,94.0534439 117.43873,94.0534439 C117.43873,94.0534439 117.862663,94.5587079 118.063643,95.5688515 C118.264624,96.5789952 118.234727,97.3353911 118.234727,97.3353911 C118.234727,97.3353911 118.088502,98.159453 118.75676,99.4823114 C119.425018,100.80517 120.454234,102.139347 120.454234,102.139347 C120.454234,102.139347 122.170894,104.625097 122.470869,105.275866 C122.770844,105.926635 122.813027,106.623658 122.685473,106.979821 C122.557918,107.335984 121.836186,107.367844 121.836186,107.367844 L113.557444,107.353526 L113.131207,104.807257 C113.131207,104.807257 112.947881,104.291521 112.64762,104.225694 C112.347359,104.159868 111.974341,104.566478 111.974341,104.566478 L110.640623,106.052555 L105.052567,99.620737 C105.052567,99.620737 104.991352,99.2934099 105.244707,99.0018735 C105.498061,98.7103372 105.903321,98.4680981 105.903321,98.4680981 C105.903321,98.4680981 107.897443,97.1526131 108.461037,96.3728371 C109.02463,95.593061 108.637958,95.1483229 108.983127,94.2406017 C109.328297,93.3328804 109.493409,93.5772335 109.83722,91.3458094 C110.181032,89.1143852 109.955857,88.7644366 109.49641,86.9816771 C109.036963,85.1989176 107.571439,81.1574716 107.571439,81.1574716 C107.571439,81.1574716 107.187046,80.1053894 106.319917,79.5833403 C105.452787,79.0612912 104.213489,79.0101538 104.213489,79.0101538 C104.213489,79.0101538 99.5779505,78.84237 98.1026068,78.7175279 C96.6272632,78.5926858 95.1755071,78.2453689 95.1755071,78.2453689 C95.1755071,78.2453689 92.5758008,77.7392953 91.7918846,77.8047937 C91.0079684,77.870292 90.4948817,78.7257323 90.4948817,78.7257323 L89.4583977,80.5990853 L87.0128752,85.4418115 C87.0128752,85.4418115 86.8031338,86.3201009 86.7838051,86.9816771 C86.7644765,87.6432533 86.9291157,88.3087092 86.9291157,88.3087092 C86.9291157,88.3087092 87.5009877,89.0574297 87.7588716,89.9609187 C88.0167555,90.8644078 87.8674468,91.4844857 87.8674468,91.596126 C87.8674468,91.7077663 95.7147324,102.569732 95.7147324,102.569732 C95.7147324,102.569732 95.9225069,103.159518 95.8923802,103.652345 C95.8622535,104.145173 95.481878,104.453489 95.481878,104.453489 C95.481878,104.453489 95.437505,105.077672 93.6970023,105.386868 C91.9564995,105.696063 90.23458,105.527319 90.23458,105.527319 C90.23458,105.527319 89.5049361,105.478788 88.9135917,105.138803 C88.3222473,104.798818 88.0500202,104.134802 88.0500202,104.134802 L85.9473833,100.07343 C85.9473833,100.07343 85.8286142,99.6811588 84.969691,98.8093084 C84.1107677,97.937458 83.2471333,97.3836131 83.2471333,97.3836131 C83.2471333,97.3836131 82.8851055,97.2439748 82.6408832,96.5371677 C82.3966609,95.8303606 82.4777484,95.1926505 82.4777484,95.1926505 C82.4777484,95.1926505 82.6929405,92.4607195 82.7086402,92.0872408 C82.72434,91.713762 82.7625659,91.4838989 82.6408832,91.3118654 C82.5192005,91.1398319 78.0293667,87.1896269 77.493576,86.6013254 C76.9577853,86.0130238 76.7675704,85.8217724 76.7306172,84.822356 C76.6936641,83.8229397 77.0964178,83.0393509 77.0964178,83.0393509 C77.0964178,83.0393509 78.0736722,80.7036043 78.187375,80.2260156 C78.3010778,79.7484269 78.1985318,79.3738901 78.0185426,79.1661273 C77.8385534,78.9583644 77.493576,78.9221002 77.2866785,79.0101538 C77.079781,79.0982075 75.2820547,82.2489873 75.2820547,82.2489873 C75.2820547,82.2489873 73.9725106,84.0908797 73.6259219,85.5560305 C73.2793333,87.0211813 73.2806407,93.6090614 73.3736613,95.0171971 C73.4666818,96.4253329 74.1635357,96.5069059 74.4697633,98.2643668 C74.6187606,99.1194724 74.5964209,99.7846341 74.54702,100.280363 C74.4948894,100.803483 74.5501058,101.312892 74.6335817,101.494517 C74.7170576,101.676143 78.43609,105.138803 78.43609,105.138803 C78.43609,105.138803 78.956811,105.759603 78.9808018,106.161457 C79.0047925,106.563311 78.4851347,107.070893 78.4851347,107.070893 C78.4851347,107.070893 78.1188379,107.802324 76.2820903,108.191669 C74.4453426,108.581013 73.1977202,108.312696 73.1977202,108.312696 C73.1977202,108.312696 72.1952811,108.24861 71.1659858,107.451176 C70.2724746,106.758939 69.4011264,105.386868 69.4011264,105.386868 C69.4011264,105.386868 67.4594868,102.21265 67.3109648,101.552969 C67.1624428,100.893288 67.1448562,93.0798744 67.0358235,92.5835576 C66.9267907,92.0872408 65.8813803,91.5733837 65.6434612,90.2316107 C65.4055421,88.8898377 65.9431411,87.3141319 65.9431411,87.3141319 C65.9431411,87.3141319 67.7383275,81.2837044 67.9674219,79.5833403 C68.1965162,77.8829762 68.0408058,76.2819941 68.0408058,76.2819941 C68.0408058,76.2819941 67.968228,75.0619817 67.3933828,75.0399656 C66.8185377,75.0179495 66.1433852,75.9279607 66.1433852,75.9279607 C66.1433852,75.9279607 64.043362,78.2695218 63.4666484,79.3889386 C62.8899348,80.5083553 63.4397488,81.10293 63.0880451,81.9732064 C62.7363413,82.8434828 62.3809297,82.6876537 61.8235324,83.8423204 C61.6437299,84.2147874 61.735029,84.9590772 61.6378932,85.2660827 C61.433903,85.9108102 61.3041549,85.8429726 61.0084006,85.8622474 C60.7126462,85.8815221 60.6178432,85.6462385 60.4978141,85.3403832 C60.3282348,84.9082655 60.1441065,83.7722631 60.1441065,83.7722631 C60.1441065,83.7722631 59.872202,82.3138467 59.9711847,81.3034183 C60.0701675,80.29299 60.0416877,80.1695679 60.6241351,79.3889386 C61.2065824,78.6083092 61.352132,79.0598676 62.8829477,77.318861 C64.4137634,75.5778544 65.5973374,73.8546928 65.5973374,73.8546928 C65.5973374,73.8546928 66.0519293,73.2604615 66.3848375,72.2047191 C66.7177456,71.1489767 66.6257904,70.8684907 66.5706115,69.7289228 Z" id="Path-69-Copy" fill="#A8313C" transform="translate(100.604980, 68.047871) rotate(-5.000000) translate(-100.604980, -68.047871) "></path>
                <polygon id="Star-2-Copy-7" fill="#A20014" points="52.6077441 124.994444 49.8776103 126.436212 50.3990194 123.3825 48.1902947 121.219849 51.2426772 120.774318 52.6077441 117.99596 53.972811 120.774318 57.0251935 121.219849 54.8164688 123.3825 55.337878 126.436212"></polygon>
                <polygon id="Star-2-Copy-6" fill="#A20014" points="151.19697 124.994444 148.466836 126.436212 148.988245 123.3825 146.77952 121.219849 149.831903 120.774318 151.19697 117.99596 152.562037 120.774318 155.614419 121.219849 153.405694 123.3825 153.927104 126.436212"></polygon>
                <polygon id="Rectangle-25-Copy-2" fill="#D85F5F" points="29.7523072 92.410101 173.521886 92.410101 173.521886 122.812121 29.7523072 122.812121"></polygon>
                <path d="M32.1498316,96.3232323 L169.703447,96.3232323" id="Line" stroke="#D8D5B4" stroke-width="0.6" stroke-linecap="square"></path>
                <path d="M32.530303,119.50101 L170.083918,119.50101" id="Line-Copy-5" stroke="#D8D5B4" stroke-width="0.6" stroke-linecap="square"></path>
                <text id="HILLARY-CLINTON" font-family="Arial-BoldMT, Arial" font-size="15" font-weight="bold" fill="#D8D5B4">
                    <tspan x="33.379406" y="113.119192">HILLARY CLINTON</tspan>
                </text>
                <polygon id="Star-2" fill="#A8313C" points="101.752525 8.20252525 99.0223914 9.64429242 99.5438006 6.59058055 97.3350759 4.4279298 100.387458 3.98239924 101.752525 1.2040404 103.117592 3.98239924 106.169975 4.4279298 103.96125 6.59058055 104.482659 9.64429242"></polygon>
                <polygon id="Star-2-Copy-2" fill="#A8313C" points="170.675084 76.8328283 167.94495 78.2745955 168.466359 75.2208836 166.257635 73.0582328 169.310017 72.6127023 170.675084 69.8343434 172.040151 72.6127023 175.092534 73.0582328 172.883809 75.2208836 173.405218 78.2745955"></polygon>
                <polygon id="Star-2-Copy-3" fill="#A8313C" points="32.8299663 76.8328283 30.0998325 78.2745955 30.6212416 75.2208836 28.412517 73.0582328 31.4648994 72.6127023 32.8299663 69.8343434 34.1950333 72.6127023 37.2474157 73.0582328 35.038691 75.2208836 35.5601002 78.2745955"></polygon>
                <polygon id="Star-2-Copy-4" fill="#A8313C" points="52.6077441 28.6712121 49.8776103 30.1129793 50.3990194 27.0592674 48.1902947 24.8966167 51.2426772 24.4510861 52.6077441 21.6727273 53.972811 24.4510861 57.0251935 24.8966167 54.8164688 27.0592674 55.337878 30.1129793"></polygon>
                <polygon id="Star-2-Copy-5" fill="#A8313C" points="151.19697 28.6712121 148.466836 30.1129793 148.988245 27.0592674 146.77952 24.8966167 149.831903 24.4510861 151.19697 21.6727273 152.562037 24.4510861 155.614419 24.8966167 153.405694 27.0592674 153.927104 30.1129793"></polygon>
                <polygon id="Star-2-Copy-10" fill="#A8313C" points="129.621212 13.6207071 126.891078 15.0624742 127.412487 12.0087624 125.203763 9.84611162 128.256145 9.40058106 129.621212 6.62222222 130.986279 9.40058106 134.038661 9.84611162 131.829937 12.0087624 132.351346 15.0624742"></polygon>
                <polygon id="Star-2-Copy-11" fill="#A8313C" points="74.483165 13.6207071 71.7530311 15.0624742 72.2744403 12.0087624 70.0657156 9.84611162 73.1180981 9.40058106 74.483165 6.62222222 75.8482319 9.40058106 78.9006144 9.84611162 76.6918897 12.0087624 77.2132988 15.0624742"></polygon>
                <polygon id="Star-2-Copy-13" fill="#A8313C" points="129.621212 140.044949 126.891078 141.486717 127.412487 138.433005 125.203763 136.270354 128.256145 135.824823 129.621212 133.046465 130.986279 135.824823 134.038661 136.270354 131.829937 138.433005 132.351346 141.486717"></polygon>
                <polygon id="Star-2-Copy-12" fill="#A8313C" points="74.483165 140.044949 71.7530311 141.486717 72.2744403 138.433005 70.0657156 136.270354 73.1180981 135.824823 74.483165 133.046465 75.8482319 135.824823 78.9006144 136.270354 76.6918897 138.433005 77.2132988 141.486717"></polygon>
                <polygon id="Star-2-Copy-8" fill="#A8313C" points="165.880471 52.7520202 163.150338 54.1937874 163.671747 51.1400755 161.463022 48.9774248 164.515404 48.5318942 165.880471 45.7535354 167.245538 48.5318942 170.297921 48.9774248 168.089196 51.1400755 168.610605 54.1937874"></polygon>
                <polygon id="Star-2-Copy-9" fill="#A8313C" points="37.6245791 52.7520202 34.8944453 54.1937874 35.4158544 51.1400755 33.2071298 48.9774248 36.2595122 48.5318942 37.6245791 45.7535354 38.9896461 48.5318942 42.0420285 48.9774248 39.8333038 51.1400755 40.354713 54.1937874"></polygon>
                <polygon id="Star-2-Copy" fill="#A8313C" points="101.752525 146.065152 99.0223914 147.506919 99.5438006 144.453207 97.3350759 142.290556 100.387458 141.845026 101.752525 139.066667 103.117592 141.845026 106.169975 142.290556 103.96125 144.453207 104.482659 147.506919"></polygon>
            </g>
        </g>
    </g>
</svg>