<svg width="1082px" height="655px" viewBox="0 0 1082 655" version="1.1" xmlns="http://www.w3.org/2000/svg" xmlns:xlink="http://www.w3.org/1999/xlink">
    <!-- Generator: Sketch 40.3 (33839) - http://www.bohemiancoding.com/sketch -->
    <title>karta copy</title>
    <desc>Created with Sketch.</desc>
    <defs></defs>
    <symbol id="state-map">
      <g id="Page-1" stroke="none" stroke-width="1" fill="none" fill-rule="evenodd">
          <g id="Artboard-Copy-2" transform="translate(-693.000000, -636.000000)">
              <g id="karta-copy" transform="translate(696.000000, 639.000000)">
                  <g id="Group" transform="translate(0.367451, 0.000000)" stroke-width="5.1714" stroke="#FFFFFF" fill="#DDDDDD">
                      <polygon id="AK" points="44.7657101 466.183099 89.5314204 492.143099 89.5314204 544.063099 44.7657101 570.023099 0 544.063099 0 492.143099"></polygon>
                      <polygon id="ME" points="1031.01679 0 1075.7825 25.96 1075.7825 77.88 1031.01679 103.84 986.251079 77.88 986.251079 25.96"></polygon>
                      <polygon id="VT" points="896.719658 77.88 941.485369 103.84 941.485369 155.76 896.719658 181.72 851.953948 155.76 851.953948 103.84"></polygon>
                      <polygon id="NH" points="986.251079 77.88 1031.01679 103.84 1031.01679 155.76 986.251079 181.72 941.485369 155.76 941.485369 103.84"></polygon>
                      <polygon id="WA" points="135.702584 155.76 180.468295 181.72 180.468295 233.64 135.702584 259.6 90.9368739 233.64 90.9368739 181.72"></polygon>
                      <polygon id="MT" points="225.234004 155.76 269.999714 181.72 269.999714 233.64 225.234004 259.6 180.468295 233.64 180.468295 181.72"></polygon>
                      <polygon id="ND" points="314.765425 155.76 359.531135 181.72 359.531135 233.64 314.765425 259.6 269.999714 233.64 269.999714 181.72"></polygon>
                      <polygon id="MN" points="404.296845 155.76 449.062557 181.72 449.062557 233.64 404.296845 259.6 359.531135 233.64 359.531135 181.72"></polygon>
                      <polygon id="WI" points="493.828268 155.76 538.593978 181.72 538.593978 233.64 493.828268 259.6 449.062557 233.64 449.062557 181.72"></polygon>
                      <polygon id="MI" points="672.891108 155.76 717.656818 181.72 717.656818 233.64 672.891108 259.6 628.125398 233.64 628.125398 181.72"></polygon>
                      <polygon id="NY" points="851.953948 155.76 896.719658 181.72 896.719658 233.64 851.953948 259.6 807.188238 233.64 807.188238 181.72"></polygon>
                      <polygon id="MA" points="941.485369 155.76 986.251079 181.72 986.251079 233.64 941.485369 259.6 896.719658 233.64 896.719658 181.72"></polygon>
                      <polygon id="RI" points="1031.01679 155.76 1075.7825 181.72 1075.7825 233.64 1031.01679 259.6 986.251079 233.64 986.251079 181.72"></polygon>
                      <polygon id="ID" points="180.468295 233.64 225.234004 259.6 225.234004 311.52 180.468295 337.48 135.702584 311.52 135.702584 259.6"></polygon>
                      <polygon id="WY" points="269.999714 233.64 314.765425 259.6 314.765425 311.52 269.999714 337.48 225.234004 311.52 225.234004 259.6"></polygon>
                      <polygon id="SD" points="359.531135 233.64 404.296845 259.6 404.296845 311.52 359.531135 337.48 314.765425 311.52 314.765425 259.6"></polygon>
                      <polygon id="IA" points="449.062557 233.64 493.828268 259.6 493.828268 311.52 449.062557 337.48 404.296845 311.52 404.296845 259.6"></polygon>
                      <polygon id="IL" points="538.593978 233.64 583.359688 259.6 583.359688 311.52 538.593978 337.48 493.828268 311.52 493.828268 259.6"></polygon>
                      <polygon id="IN" points="628.125398 233.64 672.891108 259.6 672.891108 311.52 628.125398 337.48 583.359688 311.52 583.359688 259.6"></polygon>
                      <polygon id="OH" points="717.656818 233.64 762.422528 259.6 762.422528 311.52 717.656818 337.48 672.891108 311.52 672.891108 259.6"></polygon>
                      <polygon id="PA" points="807.188238 233.64 851.953948 259.6 851.953948 311.52 807.188238 337.48 762.422528 311.52 762.422528 259.6"></polygon>
                      <polygon id="NJ" points="896.719658 233.64 941.485369 259.6 941.485369 311.52 896.719658 337.48 851.953948 311.52 851.953948 259.6"></polygon>
                      <polygon id="CT" points="986.251079 233.64 1031.01679 259.6 1031.01679 311.52 986.251079 337.48 941.485369 311.52 941.485369 259.6"></polygon>
                      <polygon id="OR" points="135.702584 311.52 180.468295 337.48 180.468295 389.4 135.702584 415.36 90.9368739 389.4 90.9368739 337.48"></polygon>
                      <polygon id="NV" points="225.234004 311.52 269.999714 337.48 269.999714 389.4 225.234004 415.36 180.468295 389.4 180.468295 337.48"></polygon>
                      <polygon id="CO" points="314.765425 311.52 359.531135 337.48 359.531135 389.4 314.765425 415.36 269.999714 389.4 269.999714 337.48"></polygon>
                      <polygon id="NE" points="404.296845 311.52 449.062557 337.48 449.062557 389.4 404.296845 415.36 359.531135 389.4 359.531135 337.48"></polygon>
                      <polygon id="MO" points="493.828268 311.52 538.593978 337.48 538.593978 389.4 493.828268 415.36 449.062557 389.4 449.062557 337.48"></polygon>
                      <polygon id="KY" points="583.359688 311.52 628.125398 337.48 628.125398 389.4 583.359688 415.36 538.593978 389.4 538.593978 337.48"></polygon>
                      <polygon id="WV" points="672.891108 311.52 717.656818 337.48 717.656818 389.4 672.891108 415.36 628.125398 389.4 628.125398 337.48"></polygon>
                      <polygon id="VA" points="762.422528 311.52 807.188238 337.48 807.188238 389.4 762.422528 415.36 717.656818 389.4 717.656818 337.48"></polygon>
                      <polygon id="MD" points="851.953948 311.52 896.719658 337.48 896.719658 389.4 851.953948 415.36 807.188238 389.4 807.188238 337.48"></polygon>
                      <polygon id="DE" points="941.485369 311.52 986.251079 337.48 986.251079 389.4 941.485369 415.36 896.719658 389.4 896.719658 337.48"></polygon>
                      <polygon id="CA" points="180.468295 389.4 225.234004 415.36 225.234004 467.28 180.468295 493.24 135.702584 467.28 135.702584 415.36"></polygon>
                      <polygon id="UT" points="269.999714 389.4 314.765425 415.36 314.765425 467.28 269.999714 493.24 225.234004 467.28 225.234004 415.36"></polygon>
                      <polygon id="NM" points="359.531135 389.4 404.296845 415.36 404.296845 467.28 359.531135 493.24 314.765425 467.28 314.765425 415.36"></polygon>
                      <polygon id="KS" points="449.062557 389.4 493.828268 415.36 493.828268 467.28 449.062557 493.24 404.296845 467.28 404.296845 415.36"></polygon>
                      <polygon id="AR" points="538.593978 389.4 583.359688 415.36 583.359688 467.28 538.593978 493.24 493.828268 467.28 493.828268 415.36"></polygon>
                      <polygon id="TN" points="628.125398 389.4 672.891108 415.36 672.891108 467.28 628.125398 493.24 583.359688 467.28 583.359688 415.36"></polygon>
                      <polygon id="NC" points="717.656818 389.4 762.422528 415.36 762.422528 467.28 717.656818 493.24 672.891108 467.28 672.891108 415.36"></polygon>
                      <polygon id="SC" points="807.188238 389.4 851.953948 415.36 851.953948 467.28 807.188238 493.24 762.422528 467.28 762.422528 415.36"></polygon>
                      <polygon id="DC" points="896.719658 389.4 941.485369 415.36 941.485369 467.28 896.719658 493.24 851.953948 467.28 851.953948 415.36"></polygon>
                      <polygon id="AZ" points="314.765425 467.28 359.531135 493.24 359.531135 545.16 314.765425 571.12 269.999714 545.16 269.999714 493.24"></polygon>
                      <polygon id="OK" points="404.296845 467.28 449.062557 493.24 449.062557 545.16 404.296845 571.12 359.531135 545.16 359.531135 493.24"></polygon>
                      <polygon id="LA" points="493.828268 467.28 538.593978 493.24 538.593978 545.16 493.828268 571.12 449.062557 545.16 449.062557 493.24"></polygon>
                      <polygon id="MS" points="583.359688 467.28 628.125398 493.24 628.125398 545.16 583.359688 571.12 538.593978 545.16 538.593978 493.24"></polygon>
                      <polygon id="AL" points="672.891108 467.28 717.656818 493.24 717.656818 545.16 672.891108 571.12 628.125398 545.16 628.125398 493.24"></polygon>
                      <polygon id="GA" points="762.422528 467.28 807.188238 493.24 807.188238 545.16 762.422528 571.12 717.656818 545.16 717.656818 493.24"></polygon>
                      <polygon id="HI" points="183.991369 545.16 228.757079 571.12 228.757079 623.04 183.991369 649 139.225658 623.04 139.225658 571.12"></polygon>
                      <polygon id="TX" points="449.062557 545.16 493.828268 571.12 493.828268 623.04 449.062557 649 404.296845 623.04 404.296845 571.12"></polygon>
                      <polygon id="FL" points="717.656818 545.16 762.422528 571.12 762.422528 623.04 717.656818 649 672.891108 623.04 672.891108 571.12"></polygon>
                  </g>
                  <g id="Group" transform="translate(13.915493, 19.866103)" fill="#000000">
                      <text font-family="Arial-BoldMT, Arial" font-size="33.6141" font-weight="bold">
                          <tspan x="639.872483" y="497.378297">AL</tspan>
                      </text>
                      <text font-family="Arial-BoldMT, Arial" font-size="33.6141" font-weight="bold">
                          <tspan x="6.13143825" y="496.183099">AK</tspan>
                      </text>
                      <text font-family="Helvetica" font-size="27.378" font-weight="normal">
                          <tspan x="25.1409668" y="522.652582">3</tspan>
                      </text>
                      <text font-family="Arial-BoldMT, Arial" font-size="33.6141" font-weight="bold">
                          <tspan x="279.387829" y="497.378297">AZ</tspan>
                      </text>
                      <text font-family="Arial-BoldMT, Arial" font-size="33.6141" font-weight="bold">
                          <tspan x="499.36886" y="419.498297">AR</tspan>
                      </text>
                      <text font-family="Arial-BoldMT, Arial" font-size="33.6141" font-weight="bold">
                          <tspan x="142.611459" y="419.498297">CA</tspan>
                      </text>
                      <text font-family="Arial-BoldMT, Arial" font-size="33.6141" font-weight="bold">
                          <tspan x="274.680779" y="341.618297">CO</tspan>
                      </text>
                      <text font-family="Arial-BoldMT, Arial" font-size="33.6141" font-weight="bold">
                          <tspan x="949.885262" y="260.691348">CT</tspan>
                      </text>
                      <text font-family="Arial-BoldMT, Arial" font-size="33.6141" font-weight="bold">
                          <tspan x="903.18758" y="341.618297">DE</tspan>
                      </text>
                      <text font-family="Arial-BoldMT, Arial" font-size="33.6141" font-weight="bold">
                          <tspan x="859.47098" y="419.498297">DC</tspan>
                      </text>
                      <text font-family="Arial-BoldMT, Arial" font-size="33.6141" font-weight="bold">
                          <tspan x="686.28121" y="575.258297">FL</tspan>
                      </text>
                      <text font-family="Arial-BoldMT, Arial" font-size="33.6141" font-weight="bold">
                          <tspan x="723.098035" y="497.378297">GA</tspan>
                      </text>
                      <text font-family="Arial-BoldMT, Arial" font-size="33.6141" font-weight="bold">
                          <tspan x="152.842358" y="572.211348">HI</tspan>
                      </text>
                      <text font-family="Arial-BoldMT, Arial" font-size="33.6141" font-weight="bold">
                          <tspan x="149.243258" y="263.738297">ID</tspan>
                      </text>
                      <text font-family="Arial-BoldMT, Arial" font-size="33.6141" font-weight="bold">
                          <tspan x="510.76037" y="260.691348">IL</tspan>
                      </text>
                      <text font-family="Arial-BoldMT, Arial" font-size="33.6141" font-weight="bold">
                          <tspan x="597.432477" y="260.691348">IN</tspan>
                      </text>
                      <text font-family="Arial-BoldMT, Arial" font-size="33.6141" font-weight="bold">
                          <tspan x="418.217595" y="260.691348">IA</tspan>
                      </text>
                      <text font-family="Arial-BoldMT, Arial" font-size="33.6141" font-weight="bold">
                          <tspan x="411.448912" y="419.498297">KS</tspan>
                      </text>
                      <text font-family="Arial-BoldMT, Arial" font-size="33.6141" font-weight="bold">
                          <tspan x="546.734275" y="341.618297">KY</tspan>
                      </text>
                      <text font-family="Arial-BoldMT, Arial" font-size="33.6141" font-weight="bold">
                          <tspan x="456.85432" y="497.378297">LA</tspan>
                      </text>
                      <text font-family="Arial-BoldMT, Arial" font-size="33.6141" font-weight="bold">
                          <tspan x="992.072383" y="30.0982967">ME</tspan>
                      </text>
                      <text font-family="Arial-BoldMT, Arial" font-size="33.6141" font-weight="bold">
                          <tspan x="811.930139" y="341.618297">MD</tspan>
                      </text>
                      <text font-family="Arial-BoldMT, Arial" font-size="33.6141" font-weight="bold">
                          <tspan x="901.385557" y="185.858297">MA</tspan>
                      </text>
                      <text font-family="Arial-BoldMT, Arial" font-size="33.6141" font-weight="bold">
                          <tspan x="639.575162" y="185.858297">MI</tspan>
                      </text>
                      <text font-family="Arial-BoldMT, Arial" font-size="33.6141" font-weight="bold">
                          <tspan x="365.033223" y="185.858297">MN</tspan>
                      </text>
                      <text font-family="Arial-BoldMT, Arial" font-size="33.6141" font-weight="bold">
                          <tspan x="543.275044" y="497.378297">MS</tspan>
                      </text>
                      <text font-family="Arial-BoldMT, Arial" font-size="33.6141" font-weight="bold">
                          <tspan x="452.868929" y="341.618297">MO</tspan>
                      </text>
                      <text font-family="Arial-BoldMT, Arial" font-size="33.6141" font-weight="bold">
                          <tspan x="189.592304" y="188.905245">MT</tspan>
                      </text>
                      <text font-family="Arial-BoldMT, Arial" font-size="33.6141" font-weight="bold">
                          <tspan x="366.911262" y="341.618297">NE</tspan>
                      </text>
                      <text font-family="Arial-BoldMT, Arial" font-size="33.6141" font-weight="bold">
                          <tspan x="187.392325" y="341.618297">NV</tspan>
                      </text>
                      <text font-family="Arial-BoldMT, Arial" font-size="33.6141" font-weight="bold">
                          <tspan x="949.002374" y="111.025245">NH</tspan>
                      </text>
                      <text font-family="Arial-BoldMT, Arial" font-size="33.6141" font-weight="bold">
                          <tspan x="860.284793" y="260.691348">NJ</tspan>
                      </text>
                      <text font-family="Arial-BoldMT, Arial" font-size="33.6141" font-weight="bold">
                          <tspan x="319.355312" y="419.498297">NM</tspan>
                      </text>
                      <text font-family="Arial-BoldMT, Arial" font-size="33.6141" font-weight="bold">
                          <tspan x="815.176468" y="185.858297">NY</tspan>
                      </text>
                      <text font-family="Arial-BoldMT, Arial" font-size="33.6141" font-weight="bold">
                          <tspan x="680.40811" y="419.498297">NC</tspan>
                      </text>
                      <text font-family="Arial-BoldMT, Arial" font-size="33.6141" font-weight="bold">
                          <tspan x="278.996718" y="185.858297">ND</tspan>
                      </text>
                      <text font-family="Arial-BoldMT, Arial" font-size="33.6141" font-weight="bold">
                          <tspan x="678.408335" y="260.691348">OH</tspan>
                      </text>
                      <text font-family="Arial-BoldMT, Arial" font-size="33.6141" font-weight="bold">
                          <tspan x="364.212193" y="497.378297">OK</tspan>
                      </text>
                      <text font-family="Arial-BoldMT, Arial" font-size="33.6141" font-weight="bold">
                          <tspan x="95.9980142" y="341.618297">OR</tspan>
                      </text>
                      <text font-family="Arial-BoldMT, Arial" font-size="33.6141" font-weight="bold">
                          <tspan x="770.745995" y="260.691348">PA</tspan>
                      </text>
                      <text font-family="Arial-BoldMT, Arial" font-size="33.6141" font-weight="bold">
                          <tspan x="1000.09583" y="185.858297">RI</tspan>
                      </text>
                      <text font-family="Arial-BoldMT, Arial" font-size="33.6141" font-weight="bold">
                          <tspan x="769.346564" y="419.498297">SC</tspan>
                      </text>
                      <text font-family="Arial-BoldMT, Arial" font-size="33.6141" font-weight="bold">
                          <tspan x="321.689448" y="263.738297">SD</tspan>
                      </text>
                      <text font-family="Arial-BoldMT, Arial" font-size="33.6141" font-weight="bold">
                          <tspan x="592.595759" y="419.498297">TN</tspan>
                      </text>
                      <text font-family="Arial-BoldMT, Arial" font-size="33.6141" font-weight="bold">
                          <tspan x="413.396026" y="575.258297">TX</tspan>
                      </text>
                      <text font-family="Arial-BoldMT, Arial" font-size="33.6141" font-weight="bold">
                          <tspan x="233.557885" y="419.498297">UT</tspan>
                      </text>
                      <text font-family="Arial-BoldMT, Arial" font-size="33.6141" font-weight="bold">
                          <tspan x="861.501902" y="111.025245">VT</tspan>
                      </text>
                      <text font-family="Arial-BoldMT, Arial" font-size="33.6141" font-weight="bold">
                          <tspan x="728.795326" y="341.618297">VA</tspan>
                      </text>
                      <text font-family="Arial-BoldMT, Arial" font-size="33.6141006" font-weight="bold">
                          <tspan x="96.6461084" y="188.905245">WA</tspan>
                      </text>
                      <text id="12" font-family="ArialMT, Arial" font-size="27.378" font-weight="normal">
                          <tspan x="105.450137" y="217.421677">12</tspan>
                      </text>
                      <text id="7" font-family="ArialMT, Arial" font-size="27.378" font-weight="normal">
                          <tspan x="113.063307" y="375.862992">7</tspan>
                      </text>
                      <text id="6" font-family="ArialMT, Arial" font-size="27.378" font-weight="normal">
                          <tspan x="204.356264" y="375.862992">6</tspan>
                      </text>
                      <text id="9" font-family="ArialMT, Arial" font-size="27.378" font-weight="normal">
                          <tspan x="292.606124" y="375.862992">9</tspan>
                      </text>
                      <text id="5" font-family="ArialMT, Arial" font-size="27.378" font-weight="normal">
                          <tspan x="383.899081" y="375.862992">5</tspan>
                      </text>
                      <text id="10" font-family="ArialMT, Arial" font-size="27.378" font-weight="normal">
                          <tspan x="464.535771" y="375.862992">10</tspan>
                      </text>
                      <text id="8" font-family="ArialMT, Arial" font-size="27.378" font-weight="normal">
                          <tspan x="563.441898" y="375.862992">8</tspan>
                      </text>
                      <text id="5" font-family="ArialMT, Arial" font-size="27.378" font-weight="normal">
                          <tspan x="651.691757" y="375.862992">5</tspan>
                      </text>
                      <text id="13" font-family="ArialMT, Arial" font-size="27.378" font-weight="normal">
                          <tspan x="735.371546" y="375.862992">13</tspan>
                      </text>
                      <text id="10" font-family="ArialMT, Arial" font-size="27.378" font-weight="normal">
                          <tspan x="823.621405" y="375.862992">10</tspan>
                      </text>
                      <text id="3" font-family="ArialMT, Arial" font-size="27.378" font-weight="normal">
                          <tspan x="919.484433" y="375.862992">3</tspan>
                      </text>
                      <text id="4" font-family="ArialMT, Arial" font-size="27.378" font-weight="normal">
                          <tspan x="158.709786" y="299.689283">4</tspan>
                      </text>
                      <text id="55" font-family="ArialMT, Arial" font-size="27.378" font-weight="normal">
                          <tspan x="151.096616" y="452.0367">55</tspan>
                      </text>
                      <text id="6" font-family="ArialMT, Arial" font-size="27.378" font-weight="normal">
                          <tspan x="250.002743" y="452.0367">6</tspan>
                      </text>
                      <text id="5" font-family="ArialMT, Arial" font-size="27.378" font-weight="normal">
                          <tspan x="338.252602" y="452.0367">5</tspan>
                      </text>
                      <text id="6" font-family="ArialMT, Arial" font-size="27.378" font-weight="normal">
                          <tspan x="429.54556" y="452.0367">6</tspan>
                      </text>
                      <text id="38" font-family="ArialMT, Arial" font-size="27.378" font-weight="normal">
                          <tspan x="421.932391" y="610.478015">38</tspan>
                      </text>
                      <text id="4" font-family="ArialMT, Arial" font-size="27.378" font-weight="normal">
                          <tspan x="161.752884" y="607.431067">4</tspan>
                      </text>
                      <text id="29" font-family="ArialMT, Arial" font-size="27.378" font-weight="normal">
                          <tspan x="689.725067" y="610.478015">29</tspan>
                      </text>
                      <text id="6-copy" font-family="ArialMT, Arial" font-size="27.378" font-weight="normal">
                          <tspan x="517.795419" y="452.0367">6</tspan>
                      </text>
                      <text id="11" font-family="ArialMT, Arial" font-size="27.378" font-weight="normal">
                          <tspan x="599.44809" y="452.0367">11</tspan>
                      </text>
                      <text id="15" font-family="ArialMT, Arial" font-size="27.378" font-weight="normal">
                          <tspan x="689.725067" y="452.0367">15</tspan>
                      </text>
                      <text id="9" font-family="ArialMT, Arial" font-size="27.378" font-weight="normal">
                          <tspan x="785.588095" y="452.0367">9</tspan>
                      </text>
                      <text id="3" font-family="ArialMT, Arial" font-size="27.378" font-weight="normal">
                          <tspan x="876.881053" y="452.0367">3</tspan>
                      </text>
                      <text id="11-copy" font-family="ArialMT, Arial" font-size="27.378" font-weight="normal">
                          <tspan x="286.008935" y="531.257358">11</tspan>
                      </text>
                      <text id="7" font-family="ArialMT, Arial" font-size="27.378" font-weight="normal">
                          <tspan x="383.899081" y="531.257358">7</tspan>
                      </text>
                      <text id="8" font-family="ArialMT, Arial" font-size="27.378" font-weight="normal">
                          <tspan x="472.14894" y="531.257358">8</tspan>
                      </text>
                      <text id="6" font-family="ArialMT, Arial" font-size="27.378" font-weight="normal">
                          <tspan x="563.441898" y="531.257358">6</tspan>
                      </text>
                      <text id="9" font-family="ArialMT, Arial" font-size="27.378" font-weight="normal">
                          <tspan x="654.734856" y="531.257358">9</tspan>
                      </text>
                      <text id="16" font-family="ArialMT, Arial" font-size="27.378" font-weight="normal">
                          <tspan x="732.328447" y="531.257358">16</tspan>
                      </text>
                      <text id="3" font-family="ArialMT, Arial" font-size="27.378" font-weight="normal">
                          <tspan x="246.959645" y="299.689283">3</tspan>
                      </text>
                      <text id="3" font-family="ArialMT, Arial" font-size="27.378" font-weight="normal">
                          <tspan x="338.252602" y="299.689283">3</tspan>
                      </text>
                      <text id="6" font-family="ArialMT, Arial" font-size="27.378" font-weight="normal">
                          <tspan x="429.54556" y="299.689283">6</tspan>
                      </text>
                      <text id="20" font-family="ArialMT, Arial" font-size="27.378" font-weight="normal">
                          <tspan x="510.18225" y="299.689283">20</tspan>
                      </text>
                      <text id="11" font-family="ArialMT, Arial" font-size="27.378" font-weight="normal">
                          <tspan x="602.491188" y="299.689283">11</tspan>
                      </text>
                      <text id="18" font-family="ArialMT, Arial" font-size="27.378" font-weight="normal">
                          <tspan x="686.681968" y="299.689283">18</tspan>
                      </text>
                      <text id="20" font-family="ArialMT, Arial" font-size="27.378" font-weight="normal">
                          <tspan x="777.974926" y="299.689283">20</tspan>
                      </text>
                      <text id="14" font-family="ArialMT, Arial" font-size="27.378" font-weight="normal">
                          <tspan x="869.267884" y="299.689283">14</tspan>
                      </text>
                      <text id="7" font-family="ArialMT, Arial" font-size="27.378" font-weight="normal">
                          <tspan x="965.130912" y="299.689283">7</tspan>
                      </text>
                      <text id="3" font-family="ArialMT, Arial" font-size="27.378" font-weight="normal">
                          <tspan x="204.356264" y="217.421677">3</tspan>
                      </text>
                      <text id="3-copy" font-family="ArialMT, Arial" font-size="27.378" font-weight="normal">
                          <tspan x="292.606124" y="217.421677">3</tspan>
                      </text>
                      <text id="10" font-family="ArialMT, Arial" font-size="27.378" font-weight="normal">
                          <tspan x="373.242813" y="217.421677">10</tspan>
                      </text>
                      <text id="10-copy" font-family="ArialMT, Arial" font-size="27.378" font-weight="normal">
                          <tspan x="464.535771" y="217.421677">10</tspan>
                      </text>
                      <text id="16" font-family="ArialMT, Arial" font-size="27.378" font-weight="normal">
                          <tspan x="644.078588" y="217.421677">16</tspan>
                      </text>
                      <text id="29" font-family="ArialMT, Arial" font-size="27.378" font-weight="normal">
                          <tspan x="823.621405" y="217.421677">29</tspan>
                      </text>
                      <text id="11" font-family="ArialMT, Arial" font-size="27.378" font-weight="normal">
                          <tspan x="912.887244" y="217.421677">11</tspan>
                      </text>
                      <text id="3" font-family="ArialMT, Arial" font-size="27.378" font-weight="normal">
                          <tspan x="876.881053" y="141.247968">3</tspan>
                      </text>
                      <text id="4" font-family="ArialMT, Arial" font-size="27.378" font-weight="normal">
                          <tspan x="965.130912" y="141.247968">4</tspan>
                      </text>
                      <text id="4-copy-2" font-family="ArialMT, Arial" font-size="27.378" font-weight="normal">
                          <tspan x="1007.73429" y="217.421677">4</tspan>
                      </text>
                      <text id="4-copy" font-family="ArialMT, Arial" font-size="27.378" font-weight="normal">
                          <tspan x="1007.73429" y="65.0742592">4</tspan>
                      </text>
                      <text id="WV" font-family="Arial-BoldMT, Arial" font-size="33.6141" font-weight="bold">
                          <tspan x="631.627734" y="341.618297">WV</tspan>
                      </text>
                      <text id="WI" font-family="Arial-BoldMT, Arial" font-size="33.6141" font-weight="bold">
                          <tspan x="458.801434" y="185.858297">WI</tspan>
                      </text>
                      <text id="WY" font-family="Arial-BoldMT, Arial" font-size="33.6141" font-weight="bold">
                          <tspan x="229.344445" y="263.738297">WY</tspan>
                      </text>
                  </g>
              </g>
          </g>
      </g>
  </symbol>
</svg>
