<?xml version="1.0" encoding="UTF-8"?>
<svg width="281px" height="232px" viewBox="0 0 281 232" version="1.1" xmlns="http://www.w3.org/2000/svg" xmlns:xlink="http://www.w3.org/1999/xlink">
    <!-- Generator: Sketch 40.2 (33826) - http://www.bohemiancoding.com/sketch -->
    <title>trump_frame</title>
    <desc>Created with Sketch.</desc>
    <defs></defs>
    <g id="Page-1" stroke="none" stroke-width="1" fill="none" fill-rule="evenodd">
        <g id="trump_frame" transform="translate(0.000000, 6.000000)">
            <g id="Page-1">
                <g id="R1-Copy">
                    <g id="blä-copy">
                        <g id="trumpeten-copy-5" transform="translate(36.000000, 0.000000)" stroke-width="12" stroke="#A8313C">
                            <circle id="Oval-15" cx="105.5" cy="105.5" r="105.5"></circle>
                        </g>
                        <g id="Group" transform="translate(0.000000, 182.000000)">
                            <path d="M230,5.58415842 L281,5.58415842 L281,43.5841584 L230,43.5841584 L230,5.58415842 L230,5.58415842 Z M281,5.58415842 L281,43.5841584 L271.103829,24.5841584 L281,5.58415842 L281,5.58415842 Z" id="Combined-Shape-Copy-4" fill="#CF5858"></path>
                            <polygon id="Combined-Shape-Copy" fill="#CF5858" points="0.193909574 5.58415842 51 5.58415842 51 43.5841584 0.0135658421 43.5841584 9.89617121 24.4092003"></polygon>
                            <polygon id="Rectangle-26-Copy-3" fill="#9C3333" points="24.4658268 27.7821782 51.375 27.7821782 51.375 43.5841584 24.4658268 38.340503"></polygon>
                            <polygon id="Rectangle-26-Copy-2" fill="#9C3333" transform="translate(242.625000, 35.683168) scale(-1, 1) translate(-242.625000, -35.683168) " points="229.125 27.7821782 256.125 27.7821782 256.125 43.5841584 229.125 38.3060487"></polygon>
                            <polygon id="Rectangle-25-Copy-3" fill="#D85F5F" points="24.4611035 0.316831683 257.625 0.316831683 257.625 38.3168317 24.4611035 38.3168317"></polygon>
                            <g id="DONALD-TRUMP-Copy" transform="translate(26.000000, 4.000000)" font-size="27.75" font-family="Arial-BoldMT, Arial" fill="#D8D5B4" font-weight="bold">
                                <text id="DONALD-TRUM">
                                    <tspan x="0.2683392" y="25.0792079">DONALD TRUM</tspan>
                                </text>
                                <text id="P">
                                    <tspan x="209.709062" y="25.0792079">P</tspan>
                                </text>
                            </g>
                        </g>
                    </g>
                </g>
            </g>
        </g>
    </g>
</svg>