<?xml version="1.0" encoding="UTF-8" standalone="no"?>
<svg width="50px" height="49px" viewBox="0 0 50 49" version="1.1" xmlns="http://www.w3.org/2000/svg" xmlns:xlink="http://www.w3.org/1999/xlink">
    <!-- Generator: Sketch 40.1 (33804) - http://www.bohemiancoding.com/sketch -->
    <title>Group 6</title>
    <desc>Created with Sketch.</desc>
    <defs>
        <ellipse id="path-1" cx="25" cy="24.4430693" rx="25" ry="24.4430693"></ellipse>
    </defs>
    <g id="Page-1" stroke="none" stroke-width="1" fill="none" fill-rule="evenodd">
        <g id="Artboard-Copy" transform="translate(-1120.000000, -147.000000)">
            <g id="Group-6" transform="translate(1120.000000, 147.000000)">
                <g id="GETINGEN-Copy">
                    <mask id="mask-2" fill="white">
                        <use xlink:href="#path-1"></use>
                    </mask>
                    <use id="Mask" fill="#FFFFFF" xlink:href="#path-1"></use>
                </g>
                <path d="M33.526149,18.8457316 C34.4160944,18.2841254 35.0989611,17.3936155 35.41944,16.3328037 C34.5861948,16.8541095 33.6654341,17.2311137 32.6830428,17.4352159 C31.899102,16.5512061 30.7786582,16 29.5386512,16 C27.1597112,16 25.231907,18.0345226 25.231907,20.5435505 C25.231907,20.8997544 25.2676528,21.2468583 25.3416094,21.578362 C21.762106,21.3885599 18.5881317,19.5815398 16.4618771,16.8307092 C16.0908611,17.5041167 15.8788519,18.2841254 15.8788519,19.1161346 C15.8788519,20.6917521 16.6393731,22.0827676 17.7955626,22.8991767 C17.0892763,22.8757764 16.4248987,22.6690741 15.8431062,22.3310703 L15.8431062,22.386971 C15.8431062,24.5891954 17.3271703,26.4261158 19.3005811,26.8421205 C18.9381933,26.9487217 18.558549,27.0020222 18.1641134,27.0020222 C17.8867758,27.0020222 17.6156013,26.9747219 17.3542877,26.9214213 C17.9015672,28.7258414 19.4928685,30.041456 21.3787639,30.0765564 C19.9033281,31.29597 18.0457827,32.021378 16.0279979,32.021378 C15.6804015,32.021378 15.3365029,32.0018778 15,31.9589773 C16.9068498,33.2472916 19.1711569,34 21.6043317,34 C29.5300229,34 33.8614193,27.0761231 33.8614193,21.0713563 C33.8614193,20.8737542 33.858954,20.677452 33.8503258,20.4837498 C34.6921993,19.8428427 35.4243705,19.0420338 36,18.1307237 C35.2271527,18.4921277 34.3963726,18.7365304 33.526149,18.8457316 Z" id="Shape" fill="#000000"></path>
            </g>
        </g>
    </g>
</svg>